<svg width="509" height="273" viewBox="0 0 509 273" fill="none" xmlns="http://www.w3.org/2000/svg">
<path d="M0.472 94V3.12H18.136V78.512H64.472V94H0.472ZM104.162 95.28C98.786 95.28 93.922 94.384 89.57 92.592C85.218 90.7147 81.506 88.1973 78.434 85.04C75.362 81.7973 72.9727 78.128 71.266 74.032C69.6447 69.8507 68.834 65.456 68.834 60.848C68.834 54.448 70.242 48.6027 73.058 43.312C75.9593 38.0213 80.0553 33.7973 85.346 30.64C90.722 27.3973 97.0367 25.776 104.29 25.776C111.629 25.776 117.901 27.3973 123.106 30.64C128.311 33.7973 132.279 38.0213 135.01 43.312C137.826 48.5173 139.234 54.1493 139.234 60.208C139.234 61.232 139.191 62.2987 139.106 63.408C139.021 64.432 138.935 65.2853 138.85 65.968H87.01C87.3513 69.3813 88.3327 72.368 89.954 74.928C91.6607 77.488 93.794 79.4507 96.354 80.816C98.9993 82.096 101.815 82.736 104.802 82.736C108.215 82.736 111.415 81.9253 114.402 80.304C117.474 78.5973 119.565 76.3787 120.674 73.648L135.394 77.744C133.773 81.1573 131.426 84.1867 128.354 86.832C125.367 89.4773 121.826 91.568 117.73 93.104C113.634 94.5547 109.111 95.28 104.162 95.28ZM86.626 55.088H121.698C121.357 51.6747 120.375 48.7307 118.754 46.256C117.218 43.696 115.17 41.7333 112.61 40.368C110.05 38.9173 107.191 38.192 104.034 38.192C100.962 38.192 98.146 38.9173 95.586 40.368C93.1113 41.7333 91.0633 43.696 89.442 46.256C87.906 48.7307 86.9673 51.6747 86.626 55.088ZM174.387 95.28C168.67 95.28 163.208 94.3413 158.003 92.464C152.798 90.5867 148.318 87.8133 144.563 84.144L150.707 73.008C154.718 76.2507 158.643 78.64 162.483 80.176C166.408 81.712 170.163 82.48 173.747 82.48C177.075 82.48 179.72 81.8827 181.683 80.688C183.731 79.4933 184.755 77.7013 184.755 75.312C184.755 73.6907 184.2 72.4533 183.091 71.6C181.982 70.6613 180.36 69.8507 178.227 69.168C176.179 68.4853 173.662 67.7173 170.675 66.864C165.726 65.2427 161.587 63.664 158.259 62.128C154.931 60.592 152.414 58.672 150.707 56.368C149.086 53.9787 148.275 50.9493 148.275 47.28C148.275 42.8427 149.384 39.0453 151.603 35.888C153.907 32.6453 157.064 30.128 161.075 28.336C165.171 26.544 169.95 25.648 175.411 25.648C180.19 25.648 184.712 26.416 188.979 27.952C193.246 29.4027 197.128 31.792 200.627 35.12L193.715 46C190.302 43.3547 187.059 41.4347 183.987 40.24C180.915 38.96 177.8 38.32 174.643 38.32C172.851 38.32 171.144 38.5333 169.523 38.96C167.987 39.3867 166.707 40.112 165.683 41.136C164.744 42.0747 164.275 43.44 164.275 45.232C164.275 46.8533 164.702 48.1333 165.555 49.072C166.494 49.9253 167.859 50.6933 169.651 51.376C171.528 52.0587 173.79 52.8267 176.435 53.68C181.811 55.216 186.334 56.7947 190.003 58.416C193.758 60.0373 196.574 62.0427 198.451 64.432C200.328 66.736 201.267 69.936 201.267 74.032C201.267 80.688 198.835 85.8933 193.971 89.648C189.107 93.4027 182.579 95.28 174.387 95.28ZM245.347 94V3.12H283.875C288.056 3.12 291.896 3.97333 295.395 5.67999C298.894 7.38666 301.923 9.69066 304.483 12.592C307.128 15.4933 309.176 18.736 310.627 22.32C312.078 25.904 312.803 29.5733 312.803 33.328C312.803 38.448 311.608 43.312 309.219 47.92C306.83 52.528 303.544 56.2827 299.363 59.184C295.182 62.0853 290.232 63.536 284.515 63.536H263.011V94H245.347ZM263.011 48.048H283.491C285.624 48.048 287.544 47.4507 289.251 46.256C290.958 45.0613 292.323 43.3547 293.347 41.136C294.371 38.832 294.883 36.2293 294.883 33.328C294.883 30.1707 294.286 27.4827 293.091 25.264C291.982 23.0453 290.488 21.3813 288.611 20.272C286.819 19.1627 284.856 18.608 282.723 18.608H263.011V48.048ZM317.95 74.16C317.95 69.808 319.145 66.0107 321.534 62.768C324.009 59.44 327.422 56.88 331.774 55.088C336.126 53.296 341.118 52.4 346.75 52.4C349.566 52.4 352.425 52.6133 355.326 53.04C358.227 53.4667 360.745 54.1493 362.878 55.088V51.504C362.878 47.2373 361.598 43.952 359.038 41.648C356.563 39.344 352.851 38.192 347.902 38.192C344.233 38.192 340.734 38.832 337.406 40.112C334.078 41.392 330.579 43.2693 326.91 45.744L321.406 34.48C325.843 31.5787 330.366 29.4027 334.974 27.952C339.667 26.5013 344.574 25.776 349.694 25.776C359.251 25.776 366.675 28.1653 371.966 32.944C377.342 37.7227 380.03 44.5493 380.03 53.424V74.8C380.03 76.592 380.329 77.872 380.926 78.64C381.609 79.408 382.675 79.8773 384.126 80.048V94C382.59 94.256 381.182 94.4693 379.902 94.64C378.707 94.8107 377.683 94.896 376.83 94.896C373.417 94.896 370.814 94.128 369.022 92.592C367.315 91.056 366.249 89.1787 365.822 86.96L365.438 83.504C362.537 87.2587 358.91 90.16 354.558 92.208C350.206 94.256 345.769 95.28 341.246 95.28C336.809 95.28 332.798 94.384 329.214 92.592C325.715 90.7147 322.942 88.1973 320.894 85.04C318.931 81.7973 317.95 78.1707 317.95 74.16ZM359.678 77.616C360.617 76.592 361.385 75.568 361.982 74.544C362.579 73.52 362.878 72.5813 362.878 71.728V64.944C360.83 64.0907 358.611 63.4507 356.222 63.024C353.833 62.512 351.571 62.256 349.438 62.256C345.001 62.256 341.331 63.2373 338.43 65.2C335.614 67.0773 334.206 69.5947 334.206 72.752C334.206 74.4587 334.675 76.08 335.614 77.616C336.553 79.152 337.918 80.3893 339.71 81.328C341.502 82.2667 343.635 82.736 346.11 82.736C348.67 82.736 351.187 82.2667 353.662 81.328C356.137 80.304 358.142 79.0667 359.678 77.616ZM395.418 68.912V26.928H412.57V65.2C412.57 70.32 413.509 74.2027 415.386 76.848C417.263 79.408 420.037 80.688 423.706 80.688C425.925 80.688 428.101 80.2613 430.234 79.408C432.453 78.4693 434.458 77.104 436.25 75.312C438.127 73.52 439.706 71.2587 440.986 68.528V26.928H458.138V74.8C458.138 76.592 458.437 77.872 459.034 78.64C459.717 79.408 460.783 79.8773 462.234 80.048V94C460.527 94.256 459.077 94.4267 457.882 94.512C456.773 94.6827 455.749 94.768 454.81 94.768C451.738 94.768 449.221 94.0853 447.258 92.72C445.381 91.2693 444.271 89.3067 443.93 86.832L443.546 81.456C440.559 85.9787 436.719 89.4347 432.026 91.824C427.333 94.128 422.17 95.28 416.538 95.28C409.626 95.28 404.378 93.0613 400.794 88.624C397.21 84.1013 395.418 77.5307 395.418 68.912ZM475.055 0.559998H492.207V72.496C492.207 75.568 492.719 77.6587 493.743 78.768C494.767 79.792 496.175 80.304 497.967 80.304C499.332 80.304 500.74 80.1333 502.191 79.792C503.642 79.4507 504.922 79.024 506.031 78.512L508.335 91.568C506.031 92.6773 503.343 93.5307 500.271 94.128C497.199 94.7253 494.426 95.024 491.951 95.024C486.575 95.024 482.394 93.616 479.407 90.8C476.506 87.8987 475.055 83.8027 475.055 78.512V0.559998ZM73.4195 244.64C67.5315 244.64 61.9422 243.445 56.6515 241.056C51.4462 238.667 46.8382 235.381 42.8275 231.2C38.9022 226.933 35.8302 221.984 33.6115 216.352C31.3928 210.72 30.2835 204.619 30.2835 198.048C30.2835 191.819 31.3928 185.973 33.6115 180.512C35.8302 174.965 38.9448 170.101 42.9555 165.92C46.9662 161.739 51.6595 158.453 57.0355 156.064C62.4115 153.675 68.2568 152.48 74.5715 152.48C83.1048 152.48 90.4008 154.315 96.4595 157.984C102.604 161.568 107.212 166.347 110.284 172.32L97.0995 182.048C94.7955 177.525 91.5528 174.069 87.3715 171.68C83.2755 169.291 78.7955 168.096 73.9315 168.096C70.0915 168.096 66.5928 168.907 63.4355 170.528C60.2782 172.149 57.5475 174.368 55.2435 177.184C52.9395 180 51.1475 183.243 49.8675 186.912C48.6728 190.581 48.0755 194.464 48.0755 198.56C48.0755 202.912 48.7155 206.923 49.9955 210.592C51.3608 214.261 53.2382 217.461 55.6275 220.192C58.1022 222.923 60.9608 225.099 64.2035 226.72C67.4462 228.256 71.0302 229.024 74.9555 229.024C79.5635 229.024 83.9582 227.829 88.1395 225.44C92.4062 223.051 96.3742 219.552 100.044 214.944V232.352C92.4488 240.544 83.5742 244.64 73.4195 244.64ZM98.7635 210.208H80.4595V197.28H113.356V244H98.7635V210.208ZM122.138 224.16C122.138 219.808 123.332 216.011 125.722 212.768C128.196 209.44 131.61 206.88 135.962 205.088C140.314 203.296 145.306 202.4 150.938 202.4C153.754 202.4 156.612 202.613 159.514 203.04C162.415 203.467 164.932 204.149 167.066 205.088V201.504C167.066 197.237 165.786 193.952 163.226 191.648C160.751 189.344 157.039 188.192 152.09 188.192C148.42 188.192 144.922 188.832 141.594 190.112C138.266 191.392 134.767 193.269 131.098 195.744L125.594 184.48C130.031 181.579 134.554 179.403 139.162 177.952C143.855 176.501 148.762 175.776 153.882 175.776C163.439 175.776 170.863 178.165 176.154 182.944C181.53 187.723 184.218 194.549 184.218 203.424V224.8C184.218 226.592 184.516 227.872 185.114 228.64C185.796 229.408 186.863 229.877 188.314 230.048V244C186.778 244.256 185.37 244.469 184.09 244.64C182.895 244.811 181.871 244.896 181.018 244.896C177.604 244.896 175.002 244.128 173.21 242.592C171.503 241.056 170.436 239.179 170.01 236.96L169.626 233.504C166.724 237.259 163.098 240.16 158.746 242.208C154.394 244.256 149.956 245.28 145.434 245.28C140.996 245.28 136.986 244.384 133.402 242.592C129.903 240.715 127.13 238.197 125.082 235.04C123.119 231.797 122.138 228.171 122.138 224.16ZM163.866 227.616C164.804 226.592 165.572 225.568 166.17 224.544C166.767 223.52 167.066 222.581 167.066 221.728V214.944C165.018 214.091 162.799 213.451 160.41 213.024C158.02 212.512 155.759 212.256 153.626 212.256C149.188 212.256 145.519 213.237 142.618 215.2C139.802 217.077 138.394 219.595 138.394 222.752C138.394 224.459 138.863 226.08 139.802 227.616C140.74 229.152 142.106 230.389 143.898 231.328C145.69 232.267 147.823 232.736 150.298 232.736C152.858 232.736 155.375 232.267 157.85 231.328C160.324 230.304 162.33 229.067 163.866 227.616ZM240.182 191.776C234.976 191.776 230.326 192.8 226.229 194.848C222.134 196.811 219.19 199.669 217.398 203.424V244H200.246V176.928H215.99V191.264C218.379 186.656 221.408 183.029 225.078 180.384C228.747 177.739 232.63 176.288 236.726 176.032C237.664 176.032 238.39 176.032 238.902 176.032C239.414 176.032 239.84 176.075 240.182 176.16V191.776ZM244.763 224.16C244.763 219.808 245.957 216.011 248.347 212.768C250.821 209.44 254.235 206.88 258.587 205.088C262.939 203.296 267.931 202.4 273.562 202.4C276.379 202.4 279.237 202.613 282.139 203.04C285.04 203.467 287.557 204.149 289.691 205.088V201.504C289.691 197.237 288.411 193.952 285.851 191.648C283.376 189.344 279.664 188.192 274.715 188.192C271.045 188.192 267.547 188.832 264.219 190.112C260.891 191.392 257.392 193.269 253.723 195.744L248.219 184.48C252.656 181.579 257.179 179.403 261.787 177.952C266.48 176.501 271.387 175.776 276.507 175.776C286.064 175.776 293.488 178.165 298.779 182.944C304.155 187.723 306.843 194.549 306.843 203.424V224.8C306.843 226.592 307.141 227.872 307.739 228.64C308.421 229.408 309.488 229.877 310.939 230.048V244C309.403 244.256 307.995 244.469 306.715 244.64C305.52 244.811 304.496 244.896 303.643 244.896C300.229 244.896 297.627 244.128 295.835 242.592C294.128 241.056 293.061 239.179 292.635 236.96L292.251 233.504C289.349 237.259 285.723 240.16 281.371 242.208C277.019 244.256 272.581 245.28 268.059 245.28C263.621 245.28 259.611 244.384 256.027 242.592C252.528 240.715 249.755 238.197 247.707 235.04C245.744 231.797 244.763 228.171 244.763 224.16ZM286.491 227.616C287.429 226.592 288.197 225.568 288.795 224.544C289.392 223.52 289.691 222.581 289.691 221.728V214.944C287.643 214.091 285.424 213.451 283.035 213.024C280.645 212.512 278.384 212.256 276.251 212.256C271.813 212.256 268.144 213.237 265.243 215.2C262.427 217.077 261.019 219.595 261.019 222.752C261.019 224.459 261.488 226.08 262.427 227.616C263.365 229.152 264.731 230.389 266.523 231.328C268.315 232.267 270.448 232.736 272.923 232.736C275.483 232.736 278 232.267 280.475 231.328C282.949 230.304 284.955 229.067 286.491 227.616ZM349.111 244.384C344.673 244.384 340.577 243.531 336.823 241.824C333.153 240.032 329.953 237.557 327.223 234.4C324.577 231.243 322.529 227.616 321.079 223.52C319.628 219.424 318.903 215.072 318.903 210.464C318.903 205.6 319.671 201.077 321.207 196.896C322.742 192.715 324.876 189.045 327.607 185.888C330.423 182.645 333.708 180.171 337.463 178.464C341.303 176.672 345.527 175.776 350.135 175.776C355.34 175.776 359.905 176.971 363.831 179.36C367.756 181.664 370.999 184.779 373.559 188.704V176.928H388.535V240.8C388.535 247.456 386.913 253.131 383.671 257.824C380.513 262.603 376.119 266.229 370.487 268.704C364.855 271.264 358.455 272.544 351.287 272.544C344.033 272.544 337.889 271.307 332.855 268.832C327.82 266.443 323.511 263.029 319.927 258.592L329.271 249.504C331.831 252.661 335.031 255.136 338.871 256.928C342.796 258.72 346.935 259.616 351.287 259.616C354.956 259.616 358.284 258.933 361.271 257.568C364.343 256.288 366.775 254.24 368.567 251.424C370.444 248.693 371.383 245.152 371.383 240.8V232.352C369.164 236.192 366.007 239.179 361.911 241.312C357.9 243.36 353.633 244.384 349.111 244.384ZM354.871 230.688C356.748 230.688 358.54 230.389 360.247 229.792C361.953 229.195 363.532 228.384 364.983 227.36C366.433 226.336 367.713 225.141 368.823 223.776C369.932 222.325 370.785 220.875 371.383 219.424V203.424C370.359 200.779 368.908 198.475 367.031 196.512C365.239 194.549 363.191 193.056 360.887 192.032C358.668 190.923 356.321 190.368 353.847 190.368C351.201 190.368 348.812 190.923 346.679 192.032C344.545 193.141 342.711 194.72 341.175 196.768C339.639 198.731 338.444 200.949 337.591 203.424C336.823 205.813 336.439 208.331 336.439 210.976C336.439 213.707 336.908 216.267 337.847 218.656C338.785 221.045 340.065 223.136 341.687 224.928C343.393 226.72 345.356 228.128 347.575 229.152C349.879 230.176 352.311 230.688 354.871 230.688ZM435.1 245.28C429.724 245.28 424.86 244.384 420.508 242.592C416.156 240.715 412.444 238.197 409.372 235.04C406.3 231.797 403.91 228.128 402.204 224.032C400.582 219.851 399.772 215.456 399.772 210.848C399.772 204.448 401.18 198.603 403.996 193.312C406.897 188.021 410.993 183.797 416.284 180.64C421.66 177.397 427.974 175.776 435.228 175.776C442.566 175.776 448.838 177.397 454.044 180.64C459.249 183.797 463.217 188.021 465.948 193.312C468.764 198.517 470.172 204.149 470.172 210.208C470.172 211.232 470.129 212.299 470.044 213.408C469.958 214.432 469.873 215.285 469.788 215.968H417.948C418.289 219.381 419.27 222.368 420.892 224.928C422.598 227.488 424.732 229.451 427.292 230.816C429.937 232.096 432.753 232.736 435.74 232.736C439.153 232.736 442.353 231.925 445.34 230.304C448.412 228.597 450.502 226.379 451.612 223.648L466.332 227.744C464.71 231.157 462.364 234.187 459.292 236.832C456.305 239.477 452.764 241.568 448.668 243.104C444.572 244.555 440.049 245.28 435.1 245.28ZM417.564 205.088H452.636C452.294 201.675 451.313 198.731 449.692 196.256C448.156 193.696 446.108 191.733 443.548 190.368C440.988 188.917 438.129 188.192 434.972 188.192C431.9 188.192 429.084 188.917 426.524 190.368C424.049 191.733 422.001 193.696 420.38 196.256C418.844 198.731 417.905 201.675 417.564 205.088Z" fill="black"/>
</svg>
