<svg width="17" height="13" viewBox="0 0 17 13" fill="none" xmlns="http://www.w3.org/2000/svg">
<path d="M15.3301 0H1.99608C1.08008 0 0.338078 0.685368 0.338078 1.52334L0.330078 10.6616C0.330078 11.4996 1.08008 12.1849 1.99608 12.1849H15.3301C16.2461 12.1849 16.9961 11.4996 16.9961 10.6616V1.52334C16.9961 0.685368 16.2461 0 15.3301 0ZM14.9961 3.23676L9.10508 6.60329C8.97217 6.67808 8.81916 6.71767 8.66308 6.71767C8.507 6.71767 8.35398 6.67808 8.22108 6.60329L2.33008 3.23676C2.24768 3.19336 2.1757 3.13524 2.11843 3.06586C2.06115 2.99648 2.01976 2.91726 1.99673 2.83294C1.97369 2.74862 1.96948 2.66092 1.98435 2.57508C1.99921 2.48925 2.03285 2.40702 2.08326 2.33332C2.13366 2.25963 2.1998 2.19596 2.27772 2.14614C2.35564 2.09631 2.44375 2.06134 2.53678 2.04331C2.62982 2.02528 2.72588 2.02457 2.81922 2.04121C2.91256 2.05786 3.00128 2.09151 3.08008 2.14018L8.66308 5.33125L14.2461 2.14018C14.3249 2.09151 14.4136 2.05786 14.5069 2.04121C14.6003 2.02457 14.6963 2.02528 14.7894 2.04331C14.8824 2.06134 14.9705 2.09631 15.0484 2.14614C15.1264 2.19596 15.1925 2.25963 15.2429 2.33332C15.2933 2.40702 15.3269 2.48925 15.3418 2.57508C15.3567 2.66092 15.3525 2.74862 15.3294 2.83294C15.3064 2.91726 15.265 2.99648 15.2077 3.06586C15.1505 3.13524 15.0785 3.19336 14.9961 3.23676Z" fill="url(#paint0_linear_32_245)"/>
<defs>
<linearGradient id="paint0_linear_32_245" x1="8.66308" y1="0" x2="8.66308" y2="12.1849" gradientUnits="userSpaceOnUse">
<stop stop-color="#FFBD00"/>
<stop offset="1" stop-color="#F2A60C"/>
</linearGradient>
</defs>
</svg>
