<svg width="20" height="20" viewBox="0 0 20 20" fill="none" xmlns="http://www.w3.org/2000/svg">
<path d="M15.8335 5.83375C15.8335 4.9175 15.0835 4.1675 14.1673 4.1675H12.501C12.0423 4.1675 11.6673 4.5425 11.6673 5C11.6673 5.45875 12.0423 5.83375 12.501 5.83375H14.1673V8.0425L11.2673 11.6675H8.33352V8.33375C8.33352 7.875 7.95852 7.5 7.50102 7.5H4.99977C4.56193 7.49983 4.12834 7.58595 3.7238 7.75343C3.31926 7.92091 2.95168 8.16646 2.64208 8.47606C2.33248 8.78566 2.08693 9.15324 1.91945 9.55778C1.75197 9.96232 1.66585 10.3959 1.66602 10.8337V12.5C1.66602 12.9587 2.04102 13.3337 2.49977 13.3337H3.33227C3.33227 14.7175 4.44977 15.8337 5.83227 15.8337C7.21602 15.8337 8.33227 14.7175 8.33227 13.3337H11.266C11.7748 13.3337 12.2498 13.1 12.566 12.7087L15.466 9.08375C15.7073 8.78375 15.8323 8.41625 15.8323 8.0425L15.8335 5.83375ZM5.83352 14.1675C5.61281 14.1665 5.40145 14.0783 5.2455 13.9221C5.08956 13.7659 5.00167 13.5545 5.00102 13.3337H6.66727C6.66727 13.7925 6.29227 14.1675 5.83352 14.1675Z" fill="#9C9C9C"/>
<path d="M4.99977 5H7.49977C7.95852 5 8.33352 5.375 8.33352 5.83375C8.33352 6.29125 7.95852 6.66625 7.50102 6.66625H4.99977C4.77906 6.66559 4.56756 6.57771 4.41138 6.42177C4.2552 6.26582 4.167 6.05445 4.16602 5.83375C4.16602 5.375 4.54102 5 4.99977 5ZM15.8348 10.8325C14.451 10.8325 13.3348 11.95 13.3348 13.3325C13.3348 14.7163 14.451 15.8325 15.8348 15.8325C17.2185 15.8325 18.3348 14.7163 18.3348 13.3325C18.3348 11.95 17.2185 10.8325 15.8348 10.8325ZM15.8348 14.1663C15.6138 14.1656 15.4022 14.0775 15.2459 13.9213C15.0897 13.7651 15.0017 13.5534 15.001 13.3325C15.001 12.875 15.376 12.5 15.8348 12.5C16.2935 12.5 16.6685 12.875 16.6685 13.3325C16.6685 13.7913 16.2935 14.1663 15.8348 14.1663Z" fill="#9C9C9C"/>
</svg>
