<svg width="19" height="19" viewBox="0 0 19 19" fill="none" xmlns="http://www.w3.org/2000/svg">
<path d="M0.83375 4.16625C1.29125 4.16625 1.66625 3.79125 1.66625 3.33375V2.5C1.6675 2.04125 2.0425 1.66625 2.5 1.66625H3.33375C3.79125 1.66625 4.16625 1.29125 4.16625 0.83375C4.16625 0.375 3.79125 0 3.33375 0H2.5C1.11625 0 0 1.11625 0 2.5V3.33375C0 3.79125 0.375 4.16625 0.83375 4.16625ZM3.33375 16.6663H2.5C2.27929 16.6656 2.0678 16.5777 1.91162 16.4218C1.75544 16.2658 1.66724 16.0545 1.66625 15.8337V15C1.66625 14.5413 1.29125 14.1675 0.83375 14.1675C0.375 14.1675 0 14.5425 0 15V15.8337C0 17.2175 1.11625 18.3337 2.5 18.3337H3.33375C3.79125 18.3337 4.16625 17.9587 4.16625 17.5C4.16625 17.0413 3.79125 16.6675 3.33375 16.6675V16.6663ZM15.8337 0H15.0012C14.5425 0 14.1675 0.375 14.1675 0.83375C14.1675 1.29125 14.5425 1.66625 15.0012 1.66625H15.8337C16.2925 1.66625 16.6675 2.04125 16.6675 2.5V3.33375C16.6675 3.79125 17.0425 4.16625 17.5012 4.16625C17.9587 4.16625 18.3337 3.79125 18.3337 3.33375V2.5C18.3337 1.11625 17.2175 0 15.8337 0ZM17.5012 14.1663C17.0425 14.1663 16.6675 14.5413 16.6675 15V15.8337C16.6675 16.2925 16.2925 16.6675 15.8337 16.6675H15.0012C14.5425 16.6675 14.1675 17.0425 14.1675 17.5C14.1675 17.9587 14.5425 18.3337 15.0012 18.3337H15.8337C17.2175 18.3337 18.3337 17.2175 18.3337 15.8337V15C18.3337 14.5413 17.9587 14.1675 17.5012 14.1675V14.1663ZM14.9987 11.5588V6.775C14.9987 6.175 14.6825 5.625 14.1662 5.33375L9.99875 2.93375C9.74613 2.78552 9.45853 2.70737 9.16562 2.70737C8.87272 2.70737 8.58512 2.78552 8.3325 2.93375L4.16625 5.32375C3.64875 5.62375 3.3325 6.17375 3.3325 6.77375V11.5575C3.3325 12.1575 3.64875 12.7075 4.16625 12.9988L8.3325 15.3988C8.58512 15.547 8.87272 15.6251 9.16562 15.6251C9.45853 15.6251 9.74613 15.547 9.99875 15.3988L14.1675 13C14.4215 12.8551 14.6325 12.6453 14.7788 12.392C14.9251 12.1388 15.0014 11.8512 15 11.5588H14.9987ZM8.3325 13.475L4.99875 11.5588V7.7L8.3325 9.64125V13.475ZM9.16625 8.2L5.86625 6.275L9.16625 4.375L12.4662 6.275L9.16625 8.2ZM13.3325 11.5588L9.99875 13.475V9.64125L13.3325 7.7V11.5588Z" fill="#9C9C9C"/>
</svg>
