<svg width="14" height="15" viewBox="0 0 14 15" fill="none" xmlns="http://www.w3.org/2000/svg">
<path d="M6.667 0C3.167 0 0 2.45179 0 6.24416C0 8.66579 2.042 11.5142 6.117 14.7957C6.27099 14.9172 6.46761 14.984 6.671 14.984C6.87439 14.984 7.07101 14.9172 7.225 14.7957C11.292 11.5142 13.334 8.66579 13.334 6.24416C13.334 2.45179 10.167 0 6.667 0ZM6.667 7.6149C5.75 7.6149 5 6.92953 5 6.09155C5 5.25357 5.75 4.56821 6.667 4.56821C7.584 4.56821 8.334 5.25357 8.334 6.09155C8.334 6.92953 7.584 7.6149 6.667 7.6149Z" fill="url(#paint0_linear_32_249)"/>
<defs>
<linearGradient id="paint0_linear_32_249" x1="6.667" y1="0" x2="6.667" y2="14.984" gradientUnits="userSpaceOnUse">
<stop stop-color="#FFBD00"/>
<stop offset="1" stop-color="#F2A60C"/>
</linearGradient>
</defs>
</svg>
