<svg width="15" height="14" viewBox="0 0 15 14" fill="none" xmlns="http://www.w3.org/2000/svg">
<path d="M13.5333 9.32923L11.4163 9.10809C11.1675 9.08145 10.9154 9.10666 10.6788 9.18184C10.4422 9.25702 10.2273 9.38021 10.0503 9.54215L8.5163 10.943C6.151 9.84361 4.22842 8.08671 3.0253 5.92524L4.5663 4.51612C4.9253 4.18897 5.1003 3.73206 5.0413 3.26692L4.8003 1.34789C4.75294 0.976339 4.55772 0.633674 4.2518 0.385127C3.94589 0.13658 3.55064 -0.000492763 3.1413 1.33111e-06H1.7003C0.758302 1.33111e-06 -0.024698 0.716439 0.033302 1.57635C0.475302 8.08003 6.1663 13.2733 13.2753 13.6772C14.2163 13.7302 15.0003 13.0147 15.0003 12.1539V10.837C15.0024 10.4646 14.8537 10.1046 14.5829 9.8263C14.3121 9.54797 13.9383 9.37093 13.5333 9.32923Z" fill="url(#paint0_linear_32_251)"/>
<defs>
<linearGradient id="paint0_linear_32_251" x1="7.5153" y1="0" x2="7.5153" y2="13.68" gradientUnits="userSpaceOnUse">
<stop stop-color="#FFBD00"/>
<stop offset="1" stop-color="#F2A60C"/>
</linearGradient>
</defs>
</svg>
