<svg width="290" height="98" viewBox="0 0 290 98" fill="none" xmlns="http://www.w3.org/2000/svg">
<g clip-path="url(#clip0_12_16)">
<path d="M176.593 0.0500488H182.232C183.049 0.125 183.868 0.169971 184.688 0.235929C183.269 5.8543 181.46 11.3647 179.806 16.9171C177.818 23.372 175.833 29.8238 173.741 36.2456C175.94 35.1753 178.199 34.2279 180.533 33.4904C183.162 32.669 185.847 31.6706 188.649 31.9644C189.424 31.9044 190.133 32.4441 190.384 33.1696C191.257 35.2503 190.628 37.5078 190.521 39.6604C192.717 39.1538 193.904 37.0851 195.421 35.622C197.784 33.5474 200.768 32.1833 203.87 31.7246C206.046 31.5357 208.457 31.5747 210.311 32.8758C210.758 33.5174 210.609 34.5278 210.132 35.1364C208.603 35.8439 206.785 35.694 205.325 36.5874C204.803 37.0791 204.735 37.8586 204.496 38.5002C202.702 44.5263 200.803 50.5284 199.245 56.6205C198.839 57.7957 199.283 59.4237 200.61 59.7205C202.019 59.7744 203.48 59.9123 204.866 59.5736C206.019 58.5962 206.508 57.0822 207.131 55.748C209.444 49.4191 210.824 42.8024 212.394 36.2606C212.582 35.5201 212.716 34.7676 212.818 34.0121C212.284 33.6403 211.736 33.2266 211.614 32.543C213.232 31.5807 215.223 31.3378 217.032 31.8175C218.332 32.2882 219.455 33.1247 220.555 33.9491C221.378 34.5397 221.655 35.679 221.446 36.6414C220.653 41.828 218.758 46.7658 217.804 51.9165C217.625 52.8129 218.758 52.7799 219.351 52.744C222.108 52.4562 224.695 51.209 226.951 49.635C227.798 49.1283 228.096 48.1449 228.379 47.2605C229.532 43.3211 230.432 39.3157 231.463 35.3432C231.759 34.192 232.116 33.0557 232.611 31.9764C235.475 31.5327 238.45 31.4607 241.305 32.0034C241.278 33.6283 240.378 35.0194 239.943 36.5395C242.122 36.1377 244.014 34.9235 246.041 34.099C248.491 33.0707 251.051 31.8625 253.778 32.1893C255.155 32.2432 256.586 33.1486 256.857 34.5817C257.426 36.6474 256.344 38.6051 256.008 40.5988C257.611 40.4999 259.304 39.8403 260.303 38.5272C261.221 36.5544 261.542 34.2339 263.039 32.573C263.504 32.0034 264.27 31.9584 264.94 31.8505C268.305 31.4008 271.706 31.3078 275.098 31.3228C278.93 31.3138 282.778 31.3108 286.59 31.7875C287.353 31.8895 288.241 32.1863 288.462 33.0317C288.924 34.5367 288.73 36.1737 288.292 37.6637C287.231 41.4563 286.334 45.3028 285.067 49.0354C284.874 49.4131 284.799 50.0457 284.28 50.0907C281.538 50.5014 278.758 50.5014 275.992 50.5374C273.277 50.5884 270.552 50.3125 267.849 50.6393C266.687 53.0198 265.813 55.5681 265.477 58.2064C265.402 59.1868 265.411 60.5599 266.49 60.9976C268.716 61.6182 271.146 61.2675 273.19 60.2151C274.686 59.4686 275.801 58.1735 276.913 56.9562C278.761 56.9383 280.614 56.8063 282.459 56.9952C282.134 58.887 281.306 60.6499 280.31 62.2718C279.884 62.8954 279.452 63.564 278.799 63.9627C277.187 64.2865 275.533 64.2265 273.899 64.2835C268.627 64.3195 263.337 64.3914 258.085 63.8638C256.89 63.7948 255.608 63.2822 255.111 62.1039C254.485 60.461 254.771 58.6412 255.09 56.9592C256.187 52.726 257.999 48.7146 259.051 44.4663C259.179 43.9357 259.23 43.39 259.283 42.8474C257.528 43.7348 255.856 44.8471 254.321 46.0703C253.194 49.0144 252.416 52.0934 251.415 55.0885C248.065 65.8185 244.736 76.5576 241.391 87.2906C241.204 87.8183 241.207 88.3819 241.225 88.9366C241.758 89.1075 242.315 89.4073 242.891 89.2004C243.636 89.1075 243.928 88.3489 244.253 87.7763C244.768 86.8379 245.141 85.8276 245.567 84.8472C246.929 84.5324 248.39 84.7902 249.79 84.7363C249.621 86.0314 248.95 87.1707 248.372 88.313C247.147 90.5435 245.868 92.7501 244.417 94.8398C244.005 95.4094 243.612 96.018 243.046 96.4437C241.916 96.9654 240.64 96.9744 239.436 97.1872H234.426C232.691 97.0313 230.948 96.9294 229.24 96.5636C229.377 94.9807 229.872 93.4636 230.289 91.9406C234.656 76.9563 239.666 62.1759 244.172 47.2365C244.554 45.6236 245.302 44.0646 245.257 42.3767C244.011 42.0319 242.754 42.4486 241.561 42.8024C240.289 43.2491 239.001 43.7228 237.863 44.4633C237.347 44.7781 237.183 45.4017 236.974 45.9294C235.344 51.2839 234.104 56.7554 232.432 62.0979C232.134 62.7155 232.036 63.7289 231.189 63.8008C228.626 64.3255 225.896 64.4364 223.375 63.6509C223.64 60.395 225.061 57.403 225.914 54.285C222.942 56.1318 219.485 57.1391 216.001 57.271C215.047 59.1059 214.832 61.7052 212.713 62.6136C210.243 63.7828 207.423 63.6149 204.764 63.8098C201.087 64.1186 197.409 63.7798 193.728 63.7139C193.003 63.6779 192.097 63.6839 191.698 62.9524C190.72 61.3724 189.642 59.5826 189.987 57.6398C190.405 54.7887 191.325 52.0454 192.035 49.2602C192.592 47.0656 193.355 44.898 193.522 42.6255C192.232 43.9177 190.7 45.0599 188.813 45.1919C186.461 51.236 185.23 57.6608 182.9 63.7139C179.52 64.1816 176.045 64.2116 172.677 63.6539C172.727 61.4623 173.419 59.3637 173.979 57.265C175.13 52.9568 176.489 48.7056 177.58 44.3824C177.946 42.9763 178.34 41.5582 178.325 40.0952C176.673 40.2181 175.118 40.8537 173.678 41.6362C172.689 42.2058 171.645 42.9043 171.261 44.0496C169.783 48.058 168.862 52.2433 167.649 56.3357C166.987 58.5212 166.471 60.7638 165.526 62.8504C165.267 63.6389 164.346 63.6719 163.661 63.7678C161.163 64.0407 158.609 64.1366 156.129 63.6629C156.439 60.6289 158.016 57.8797 158.269 54.8336C155.685 55.826 153.14 57.289 150.281 57.1661C149.664 59.0459 149.092 61.0876 147.581 62.4577C146.186 63.6959 144.234 63.8638 142.464 63.9627C139.266 64.0227 136.073 63.7768 132.878 63.7618C132.548 64.4814 132.25 65.2159 132.026 65.9774C129.707 73.4426 127.666 80.9887 125.451 88.4869C124.608 91.1341 123.907 93.8294 122.876 96.4137C119.463 96.8694 115.988 96.8005 112.555 96.6356C112.942 93.5536 114.024 90.6185 114.826 87.6324C118.733 74.375 123.183 61.2884 127.138 48.046C122.238 53.0917 117.025 57.9126 111.103 61.7292C109.523 62.6586 107.795 63.7948 105.875 63.48C104.859 63.2702 103.539 62.7935 103.565 61.5283C103.56 59.1658 104.51 56.9502 105.181 54.7257C102.701 55.9609 100.072 57.2441 97.2349 57.1601C96.4988 59.4027 95.7 62.026 93.3961 63.1143C90.9253 64.1666 88.1534 63.8848 85.5396 63.8098C83.5426 63.8098 81.5457 63.6419 79.5518 63.7409C79.0153 64.2056 78.8961 64.9731 78.6308 65.6027C75.3255 75.7931 72.7772 86.2143 69.5821 96.4377C67.0726 96.8215 64.5213 96.7015 61.9938 96.7555C60.9566 96.7045 59.8807 96.8484 58.8763 96.5516C58.8196 95.4903 59.2667 94.483 59.5111 93.4696C62.2621 84.1667 65.4184 74.9926 68.375 65.7556C68.9055 63.9417 69.5314 62.1549 69.9785 60.3141C62.4975 62.7065 54.9301 65.012 47.1064 65.9414C40.7878 66.7299 34.183 66.673 28.1416 64.4394C25.0628 63.2971 22.2701 61.4443 19.8529 59.2288C15.3047 54.3539 13.892 47.5273 12.9144 41.1325C12.6134 39.6964 12.7713 38.0895 12.0322 36.7883C10.7148 36.1557 9.1739 36.3206 7.74924 36.2756C5.16517 36.3086 2.58408 36.1797 7.62939e-06 36.2277V35.5561C0.402371 34.2969 0.83752 33.0017 1.75849 32.0214C4.05345 32.0484 6.34841 31.9554 8.64338 31.9944C10.1008 31.9434 11.6775 32.2013 13.0008 31.4248C13.9307 30.996 14.1304 29.9047 14.5149 29.0593C16.7711 23.7587 19.5817 18.638 23.361 14.2699C26.7497 10.1655 31.0774 6.81667 35.9803 4.75401C41.1633 2.54144 46.8977 2.1367 52.4623 2.35856C61.5855 3.16204 70.2348 7.13747 77.4804 12.6629C76.4193 14.081 75.0155 15.1843 73.5909 16.2036C72.9858 16.5874 72.348 17.0341 71.6059 17.0431C71.0992 16.9201 70.6789 16.5904 70.2348 16.3355C67.8445 14.7735 65.1889 13.6882 62.7658 12.1802C57.0701 8.81638 50.0392 7.31735 43.5954 9.16715C39.989 10.1115 37.1397 12.7708 34.8209 15.586C31.5811 19.6394 29.1133 24.3253 27.6409 29.3141C27.176 30.4594 28.0015 31.9194 29.2355 31.9884C43.4165 32.0244 57.6006 31.9464 71.7817 32.0274C70.9472 33.4694 70.0858 34.9055 69.0814 36.2396C55.7825 36.2097 42.4866 36.2366 29.1878 36.2247C27.9747 36.1167 27.1491 37.262 26.6335 38.2154C25.644 40.7158 26.1268 43.6149 27.4323 45.9084C30.222 51.3049 34.9937 55.6671 40.6954 57.7507C47.9498 60.479 56.0895 60.1222 63.4274 57.8976C66.1516 57.1241 68.7535 55.9639 71.2363 54.6058C72.1423 54.1591 72.0559 52.9958 72.351 52.1683C73.8561 46.6969 75.5788 41.2824 77.4685 35.9338C77.9871 34.7016 78.2791 33.3285 79.1047 32.2582C79.8826 31.8475 80.8066 31.9794 81.656 31.8985C84.0404 31.8925 86.4516 31.8565 88.8032 32.3152C88.8211 33.9461 88.1683 35.4691 87.763 37.0221C85.7094 44.0226 83.3459 50.9301 81.3818 57.9606C81.1642 58.7131 81.0271 59.4896 80.9735 60.2751C82.5054 60.437 84.1656 60.7848 85.626 60.1162C86.2847 59.1688 86.5052 57.9966 86.8987 56.9263C89.1489 49.5121 91.0326 41.9899 92.9967 34.4978C93.3603 33.3315 92.4841 32.3991 91.6436 31.7515C93.563 30.6033 95.9027 30.7292 98.0575 30.6722C98.9964 30.7292 100.087 30.4594 100.883 31.116C101.986 31.9494 102.63 33.4215 102.284 34.8006C101.39 40.2151 99.7654 45.4737 98.5016 50.8072C98.4241 51.2359 98.4003 51.6707 98.3765 52.1084C99.214 52.3842 100.093 52.771 100.987 52.5191C103.112 52.0784 104.618 50.3515 105.935 48.7446C107.038 47.4974 107.142 45.7555 107.622 44.2265C108.65 40.6048 109.601 36.9502 110.987 33.4455C111.276 32.9118 111.443 32.0514 112.179 32.0154C114.891 31.5117 117.675 31.6346 120.417 31.7486C120.819 31.8655 121.454 31.7336 121.663 32.1893C121.487 34.09 120.846 35.9099 120.337 37.7387C119.404 40.8267 118.483 43.9207 117.621 47.0327C117.344 47.995 117.189 48.9904 117.147 49.9947C117.776 49.7069 118.375 49.3562 118.924 48.9334C122.018 46.565 124.971 44.0166 127.973 41.5282C128.497 41.0725 129.12 40.6348 129.344 39.9363C130.163 37.6967 130.652 35.3462 131.57 33.1397C131.761 32.6989 132.014 32.2073 132.533 32.1023C134.118 31.6886 135.772 31.6946 137.403 31.6766C139.072 31.6886 140.768 31.6076 142.404 32.0274C142.273 32.8608 142.106 33.6853 141.862 34.4918C139.838 41.3783 137.468 48.1539 135.34 55.0075C134.834 56.7404 134.208 58.4523 134.014 60.2571C135.582 60.491 137.215 60.6798 138.753 60.1702C139.817 57.8647 140.362 55.3673 141.143 52.9598C142.827 46.8288 144.487 40.6858 146.034 34.5188C146.454 33.3645 145.51 32.4681 144.756 31.7605C145.906 30.9511 147.34 30.8461 148.696 30.7352C150.171 30.6782 151.664 30.5913 153.137 30.7352C154.746 31.2719 155.774 33.1726 155.369 34.8306C154.585 39.2557 153.387 43.5909 152.275 47.9381C151.936 49.3082 151.453 50.6633 151.426 52.0904C152.487 52.5221 153.685 52.8369 154.782 52.3153C156.97 51.3948 158.618 49.4641 159.819 47.4644C161.843 41.927 163.601 36.2936 165.482 30.7022C168.725 20.6317 172.14 10.6122 175.15 0.469777C175.547 0.139991 176.11 0.172969 176.593 0.0500488ZM271.616 37.8286C270.844 40.5778 269.166 43.2041 269.59 46.1662C269.7 46.5979 269.798 47.2995 270.377 47.2875C271.813 47.4434 273.259 47.3025 274.701 47.2815C275.53 45.2278 276.066 43.0722 276.644 40.9406C276.907 39.7444 277.369 38.5841 277.402 37.3489C276.203 36.8123 274.862 37.0251 273.592 36.9472C272.877 37.0042 271.745 36.8542 271.616 37.8286Z" fill="#9C9C9C"/>
<path d="M117.872 7.15244C121.669 5.66541 126.423 8.21076 127.087 12.3091C128.119 16.3895 124.646 20.9165 120.417 20.6917C116.659 21.0575 113.189 17.5827 113.306 13.8411C113.166 10.924 115.148 8.10883 117.872 7.15244Z" fill="#9C9C9C"/>
</g>
<defs>
<clipPath id="clip0_12_16">
<rect width="290" height="97.2371" fill="white"/>
</clipPath>
</defs>
</svg>
