<svg width="150" height="65" viewBox="0 0 150 65" fill="none" xmlns="http://www.w3.org/2000/svg">
<g clip-path="url(#clip0_12_24)">
<path d="M128.092 59.9362H128.759C129.09 59.9362 129.327 59.8928 129.47 59.8112C129.61 59.7164 129.677 59.5795 129.677 59.3794C129.677 59.2017 129.612 59.0687 129.47 58.9739C129.333 58.8857 129.117 58.837 128.843 58.837H128.092V59.9362ZM127.283 62.2295V58.2065H129.186C129.66 58.2065 130.003 58.3105 130.219 58.5342C130.431 58.7528 130.542 59.0226 130.542 59.3399C130.542 59.6519 130.452 59.8994 130.27 60.0889C130.09 60.2746 129.82 60.4036 129.456 60.4654C129.621 60.5273 129.75 60.6155 129.846 60.7261C129.944 60.8314 130.099 61.0657 130.311 61.4212L130.78 62.2295H129.77L129.441 61.5844C129.238 61.1947 129.055 60.9301 128.903 60.788C128.751 60.6471 128.555 60.5747 128.298 60.5747H128.092V62.2295H127.283ZM129.045 57.1573C128.119 57.1573 127.358 57.4587 126.781 58.0814C126.205 58.6883 125.917 59.4018 125.917 60.2074C125.917 61.0447 126.211 61.7674 126.811 62.3611C127.412 62.9535 128.126 63.2536 128.964 63.2536C129.799 63.2536 130.517 62.9535 131.117 62.3611C131.711 61.7674 132.013 61.0447 132.013 60.2074C132.013 59.6295 131.863 59.1016 131.56 58.6185C131.262 58.1288 130.872 57.7602 130.401 57.5167C129.932 57.2784 129.474 57.1573 129.045 57.1573ZM128.854 56.4148C129.985 56.4148 130.914 56.79 131.643 57.5417C132.375 58.292 132.74 59.1846 132.74 60.2074C132.74 61.2448 132.369 62.1386 131.63 62.8811C130.885 63.6275 129.991 64.0027 128.954 64.0027C127.9 64.0027 127.011 63.6275 126.27 62.8837C125.529 62.1465 125.165 61.2514 125.165 60.2074C125.165 59.4689 125.359 58.7936 125.751 58.1814C126.138 57.5667 126.628 57.1165 127.214 56.8374C127.802 56.5517 128.344 56.4148 128.854 56.4148Z" fill="#9C9C9C"/>
<path d="M23.1286 0.0671501L45.3156 0.0684643V26.4839L23.1286 0.0671501Z" fill="#9C9C9C"/>
<path d="M37.9525 17.6962L37.9643 44.5447L29.5418 38.4838L23.8588 38.4891L23.8417 24.2322H29.5326L37.9525 17.6962Z" fill="#9C9C9C"/>
<path d="M45.3149 35.135V64.1162L23.1779 64.1333L45.3149 35.135Z" fill="#9C9C9C"/>
<path d="M49.9623 31.4955V64.1152L74.7046 64.0968L49.9623 31.4955Z" fill="#9C9C9C"/>
<path d="M68.1313 0.043808L92.3259 0.0306435L92.3483 30.8508L68.1313 0.043808Z" fill="#9C9C9C"/>
<path d="M96.9488 0.0213394L96.9975 64.0813L120.963 64.0616L120.922 0.00553894L96.9488 0.0213394Z" fill="#9C9C9C"/>
<path d="M124.405 0.00538635L124.432 37.4946C124.432 37.4946 125.134 37.5064 131.812 37.4972C143.692 37.4946 150.012 29.0813 150 18.8132C149.991 8.53452 143.919 -0.00777817 131.791 0.000118256C125.272 0.00933456 124.405 0.00538635 124.405 0.00538635Z" fill="#9C9C9C"/>
<path d="M76.0646 64.0964L80.0876 64.0925C94.9474 64.0806 97.2117 47.3094 92.9701 41.0932C90.2675 37.165 68.6597 9.22645 66.2388 5.93275C63.7257 2.51399 66.9194 0.0443726 66.9194 0.0443726L62.9767 0.0549011C48.1076 0.0627975 45.8447 16.9381 50.0941 23.1503C52.7875 27.0838 74.1281 55.229 76.8202 58.3213C79.8533 61.7993 76.0646 64.0964 76.0646 64.0964Z" fill="#9C9C9C"/>
<path d="M22.3174 64.1361V0.0814133L0 0.102478L0.0421251 64.1545L22.3174 64.1361Z" fill="#9C9C9C"/>
</g>
<defs>
<clipPath id="clip0_12_24">
<rect width="150" height="64.1545" fill="white"/>
</clipPath>
</defs>
</svg>
