<svg width="220" height="115" viewBox="0 0 220 115" fill="none" xmlns="http://www.w3.org/2000/svg">
<path d="M51.6776 27.3883C55.6381 27.3883 58.8498 24.74 58.8498 21.4749C58.8498 18.2097 55.6381 15.562 51.6776 15.562C47.7171 15.562 44.506 18.2104 44.506 21.4749C44.506 24.7394 47.7171 27.3883 51.6776 27.3883Z" fill="#9C9C9C"/>
<path d="M39.7762 34.6818C39.7762 34.6818 39.7762 26.3268 39.7762 22.0459C39.7762 17.7534 34.628 13.8491 30.6454 14.8314C26.6864 15.8253 10.0536 20.0143 9.37125 20.2655C8.69112 20.5265 0 23.2898 0 31.132L0.131304 82.0891C0.131304 82.0891 0.506036 87.2149 6.97385 87.1121C6.97385 87.1121 8.86595 87.1121 11.9014 85.7538C11.9014 85.7538 19.382 82.375 19.8881 82.1925C20.3712 82.0216 24.4424 80.948 24.5737 85.5367V114.155L36.8506 110.912C36.8506 110.912 36.8506 86.359 36.8506 85.5367C36.8506 83.8135 38.3694 75.2852 43.6924 71.7591C44.0221 71.5304 46.5973 70.1612 48.8841 72.6952C51.1937 75.2298 53.1964 75.6173 53.1964 75.6173C53.1964 75.6173 55.6816 76.5187 57.8835 73.4257C58.0148 73.2092 61.8875 67.9235 62.0631 67.6838C62.2387 67.4442 62.8111 66.7362 64.4605 66.8511C64.4605 66.8511 68.5316 66.634 67.8921 71.337C67.8921 71.337 86.7246 66.6224 88.2862 65.9028C88.5274 65.8232 95.7218 63.4491 100.056 57.9694C100.056 57.9694 101.354 56.394 102.981 56.5084C103.267 56.5084 107.272 56.7139 106.129 61.0976C106.129 61.0976 124.388 56.4974 125.4 56.0868C127.556 55.3563 133.254 53.4038 133.123 47.9472C133.189 46.3262 132.661 43.496 129.822 41.4638C129.669 41.3379 117.26 33.8034 117.15 33.7359C116.072 32.9823 115.522 31.2695 117.281 29.455C117.281 29.455 118.668 27.7884 120.713 27.8912C120.713 27.8912 122.254 27.834 124.631 30.4027C124.938 30.6539 126.698 32.5948 127.93 32.7998C127.93 32.7998 128.942 33.0735 130.196 32.0693C133.277 29.8662 134.883 29.775 134.883 29.775C134.883 29.775 139.326 28.7251 139.326 32.9026C139.326 32.9026 139.326 40.8598 139.326 41.6809C139.326 43.5994 142.384 49.4775 149.337 49.1929C149.337 49.1929 151.734 48.9873 154.023 48.4624L161.481 46.488C161.481 46.488 170.874 44.1596 174.152 39.1713C174.152 39.1713 175.714 36.6708 177.958 36.6708C177.958 36.6708 181.874 36.2492 181.5 41.1578L192.148 38.2352V17.0339C192.148 17.0339 191.841 14.523 195.426 14.523C198.969 14.523 198.858 16.8167 198.858 16.8167C198.858 16.8167 198.858 59.7722 198.858 60.6852C198.858 61.9182 200.42 65.7532 205.568 65.696C205.568 65.696 220 65.5938 220 55.4567C220 54.7037 220 51.5979 220 51.5979L216.326 52.6374V56.3009C216.326 56.3009 216.569 58.7674 213.158 58.9037C212.85 58.9608 209.506 58.858 209.616 56.1866V2.51424C209.616 2.51424 209.353 0.0027575 206.315 0.0027575C206.315 0.0027575 203.544 -0.202832 201.387 2.93637C199.231 6.06401 198.462 8.46114 195.558 8.46114C195.558 8.46114 192.104 8.80359 192.147 6.26899V3.55253L181.236 6.48614C181.236 6.48614 181.236 16.4402 181.236 16.8167C181.236 19.3854 178.904 32.1247 174.79 32.1697C174.503 32.2043 170.632 32.6496 170.477 29.4532C170.477 29.4532 170.477 18.529 170.477 17.4444C170.587 15.8241 169.048 10.983 164.141 11.4975L159.721 12.2281C159.721 12.2281 159.721 37.4207 159.721 38.2321C159.721 39.0308 159.367 42.8664 154.131 43.0367C153.67 43.0945 148.566 42.923 148.566 38.8593V21.9431C148.566 21.9431 148.324 18.9067 151.997 18.7011L152.107 14.3174C152.107 14.3174 140.974 16.4068 135.783 24.1352C135.168 24.6827 133.87 25.1735 132.989 25.1735C132.462 25.1735 129.954 25.0476 129.822 22.9814C129.822 22.4905 129.822 20.1621 129.822 20.1621L111.452 25.1729C111.452 25.1729 104.236 27.0573 104.236 33.1185C104.236 33.1185 104.236 37.296 107.404 39.271L120.208 47.2161C120.208 47.2161 122.386 48.4952 121.33 50.6642C121.196 51.0292 119.701 53.5291 116.643 53.5863C116.048 53.6429 114.112 53.5863 112.968 51.1776C112.968 51.1776 111.957 48.0494 108.679 48.9855C108.679 48.9855 102.519 50.7664 102.08 50.8692C101.663 50.972 98.0315 51.4969 98.0315 47.9466C98.0315 47.9466 98.0315 37.1136 98.0315 36.2468C98.0315 35.3782 96.7332 30.4246 91.6957 30.6077C91.6957 30.6077 88.7908 30.8133 86.2628 31.7603V36.8745C86.2628 36.8745 89.6723 36.4524 89.6723 40.1056V57.7644C89.6723 57.7644 89.8257 62.1706 84.2379 62.2509C79.5508 62.2053 78.7822 58.518 78.7822 58.0728C78.7372 55.5735 78.9135 1.78494 78.9135 1.78494L67.7608 5.33411L67.8921 43.8707C67.8921 43.8707 67.2105 56.3818 62.9417 61.2108C61.7112 62.5921 57.376 62.5921 57.002 59.532V39.6932L46.1127 42.513C46.1127 42.513 46.1127 49.202 46.1127 50.5493C46.1127 51.8966 44.5938 67.8541 39.0282 67.626C38.3237 67.6382 36.8277 66.9977 36.8049 64.2587L36.872 44.8189L26.2238 47.9466C26.2238 47.9466 26.1139 58.6306 26.0911 59.2248C25.7613 62.6499 26.3544 78.1282 13.9256 78.1282C13.9256 78.1282 10.8894 78.2309 10.8894 75.2055V31.9653C10.8894 31.9653 11.2412 27.0798 15.8391 25.3785C15.8391 25.3785 20.5262 23.9972 21.5375 23.7119C22.5274 23.4266 26.3552 23.7119 26.3552 27.1595V38.1293L39.7762 34.6818Z" fill="#9C9C9C"/>
<path d="M211.2 3.39303C211.2 1.69174 212.849 0.584717 214.698 0.584717C216.546 0.584717 218.195 1.69174 218.195 3.39303C218.195 5.11682 216.546 6.21289 214.698 6.21289C212.849 6.21289 211.2 5.11682 211.2 3.39303ZM214.698 1.17837C213.245 1.17837 212.101 2.10353 212.101 3.39363C212.101 4.69469 213.246 5.61863 214.698 5.61863C216.127 5.61863 217.294 4.69408 217.294 3.39363C217.294 2.10292 216.127 1.17837 214.698 1.17837ZM214.081 4.9684H213.333V1.81765H214.786C215.732 1.81765 216.259 2.06825 216.259 2.75314C216.259 3.32369 215.841 3.55178 215.336 3.59801L216.259 4.9684H215.424L214.566 3.62112H214.081V4.9684ZM214.081 3.14121H214.742C215.291 3.14121 215.49 2.99401 215.49 2.69658C215.49 2.39975 215.249 2.30851 214.699 2.30851H214.082L214.081 3.14121Z" fill="#9C9C9C"/>
</svg>
