<svg width="120" height="78" viewBox="0 0 120 78" fill="none" xmlns="http://www.w3.org/2000/svg">
<path fill-rule="evenodd" clip-rule="evenodd" d="M39.4951 0C28.5752 2.37504 20.5852 4.75006 11.9329 7.1251C5.90053 30.5236 3.06085 49.0595 0.0266712 67.8801C-0.542228 80.7385 8.1471 77.4774 11.0701 77.1285C23.2336 75.1114 33.5853 70.2981 43.0922 66.4627C45.1982 67.2182 51.2354 71.4043 51.2354 71.4043C54.4427 73.4685 62.4545 72.5146 64.3894 71.1526C69.6302 68.1229 72.3453 64.0672 77.3176 60.8151C82.3969 65.6021 88.231 69.2665 91.998 68.7337C95.8342 68.7931 100.019 66.6026 103.904 64.6075C112.627 58.1844 117.499 50.3178 119.607 41.4154C120.598 34.9002 119.633 28.8877 117.642 23.1101C113.977 14.1994 108.445 8.90076 103.334 3.09192C105.701 9.87159 106.894 17.005 107.349 24.5274C108.368 38.0911 105.609 46.8755 100.281 54.6477C94.4556 60.5551 92.0716 59.9145 90.0999 58.4894C86.5496 56.4904 86.991 53.4628 88.2018 50.2369C91.3367 43.3806 96.4298 39.1333 103.041 33.1629C96.8933 32.6487 89.682 35.0933 84.0605 39.1388C77.6781 44.1513 76.0325 46.5224 75.1902 49.3565C74.4481 51.3383 74.6601 54.0404 75.3598 55.9283C71.2432 58.8587 67.4942 62.1403 64.0243 63.8797C61.3103 65.0479 58.3913 66.7865 58.0049 61.4773C59.1732 52.4186 59.8012 43.3599 62.6638 34.3012C67.0345 34.2876 68.695 33.795 76.8133 34.4435C76.4565 33.1441 76.9791 30.878 77.5035 28.6099C72.0254 30.0901 66.4029 31.2676 63.3076 31.0287C65.6303 24.3441 67.0503 17.2504 67.7807 11.8314C59.8025 16.421 54.3929 17.9544 49.032 19.9306C49.6493 24.6059 49.6967 29.1245 48.5144 33.3052C45.215 33.8052 41.2413 35.1394 39.0239 34.3012C38.4864 38.1233 38.0566 39.962 37.232 42.1268C42.0475 40.0841 46.1694 38.499 47.9967 38.4274C47.6801 44.4273 44.7501 52.675 42.767 60.049C36.0888 62.1253 27.8755 64.932 22.2463 65.2095C19.492 64.7858 15.1869 65.0306 14.3487 60.6236C14.8055 54.56 17.048 30.7311 24.8745 17.6541C28.1669 11.2186 33.9587 5.97286 39.4951 0Z" fill="#9C9C9C"/>
</svg>
