<svg width="240" height="84" viewBox="0 0 240 84" fill="none" xmlns="http://www.w3.org/2000/svg">
<g clip-path="url(#clip0_12_52)">
<path d="M39.1156 0.0136795C39.0952 0.0340881 38.687 0.0681 38.1973 0.0953064C36.4762 0.183746 34.2313 0.476265 30.8503 1.05449C29.8775 1.21776 27.6122 1.60551 25.8163 1.90483C20.7959 2.75517 18.4626 3.25177 15.8571 4.04769C12.4694 5.0749 9.78909 6.35381 7.64624 7.96606C3.69385 10.9389 1.5646 15.415 0.306099 23.4082C-0.244921 26.9116 -0.0204311 28.245 1.23807 28.8844C1.61902 29.0749 2.50338 29.2858 3.23127 29.3538C3.49658 29.381 3.78229 29.415 3.87753 29.4354C4.22447 29.5171 15.5714 29.5375 16.1428 29.4627C17.9728 29.2178 17.3537 28.3402 14.9047 27.7212C13.3945 27.3402 11.4966 27.0137 9.72787 26.8368C8.40134 26.7008 7.90474 26.5851 7.70066 26.3538C7.45576 26.0749 7.50338 25.8708 7.90474 25.4763C8.59181 24.8164 10.2993 24.0749 14.1156 22.7892C16.5918 21.9525 17.4013 21.6395 19.2177 20.8164C21.9796 19.5579 23.8707 18.9865 27.2109 18.4014C31.1088 17.7144 34.0408 17.381 37.449 17.245C39.8775 17.1497 52.3945 17.0885 53.4353 17.1701C53.7007 17.1905 54.2313 17.2246 54.6258 17.245C55.3741 17.2858 56.5442 17.4082 56.5918 17.4491C56.6054 17.4627 56.2245 17.9729 55.7415 18.5851C49.1088 27.0273 43.8843 34.0953 38.6394 41.7008C35.3265 46.5103 31.1496 53.0341 28.9319 56.8708C23.6258 66.0409 20.7823 72.6055 20.1973 77.0341C20.0952 77.8232 20.1496 79.4218 20.2993 79.9661C20.7415 81.5647 21.8979 82.7212 23.3197 83.0001C25.1496 83.3538 29.1905 82.1089 32.0068 80.3266C33.4762 79.3946 34.8299 78.1837 35.6802 77.0409C36.4966 75.9525 41.0204 67.9388 41.0204 67.5919C41.0204 67.5511 40.6054 67.211 40.102 66.8368C39.5986 66.4695 39.1837 66.1225 39.1837 66.0749C39.1837 65.9797 40.8503 62.5851 41.687 60.9865C45.4149 53.8232 50.8775 44.3674 58.3469 32.1429C59.9455 29.5307 60.7347 28.3606 62.8095 25.5783C64.9524 22.7076 66.8503 19.9797 66.9728 19.5919C67.136 19.0885 70.1973 18.6939 83.6394 17.4491C88.653 16.9865 93.3809 16.5103 94.4558 16.3606C94.5714 16.3402 95.1496 16.2654 95.7483 16.1905C98.8027 15.796 100.388 15.4354 100.51 15.1157C100.592 14.898 100.537 14.728 98.1292 7.61912C97.068 4.48306 96.8435 3.97286 96.2381 3.36742C95.7551 2.88442 94.6598 2.13612 93.966 1.8232C93.2313 1.49667 92.2177 1.18375 91.0136 0.92524C89.034 0.503471 88.4762 0.455856 84.9319 0.374222C80.5986 0.278984 75.6462 0.210953 69.8979 0.170135C67.2449 0.149727 64.2449 0.115715 63.2313 0.102112C60.551 0.0476913 39.1564 -0.02034 39.1156 0.0136795Z" fill="#9C9C9C"/>
<path d="M147.823 3.02728C147.054 3.19735 146.483 3.40823 145.592 3.84361C144.619 4.31979 143.959 4.74156 142.361 5.90483C141.755 6.34701 140.905 6.95925 140.476 7.26537C139.068 8.26537 137.993 9.30619 135.435 12.1769C131.714 16.347 127.197 21.864 121.966 28.6055C116.327 35.8776 111.83 42.5783 108.98 47.9593C106.966 51.7688 105.367 55.9661 104.456 59.864L104.272 60.6463L102.796 61.7416C101.041 63.0545 100.463 63.4354 99.5578 63.8844C98.6735 64.3266 98.3061 64.415 97.2789 64.4627L96.4286 64.5035L95.8571 63.9252L95.2925 63.347L95.8503 62.3742C97.7279 59.0953 99.2449 55.1021 100.102 51.1837C100.449 49.5783 100.612 48.1769 100.612 46.7824C100.612 43.7007 100.088 42.381 98.5374 41.5851C98.0748 41.347 97.7211 41.2178 96.619 40.898C96.4762 40.8504 96.4898 40.8232 96.8775 40.3266C97.102 40.0409 97.3878 39.5919 97.517 39.3266C98.6258 37.0817 97.1769 35.1905 93.8775 34.5919C93.1088 34.4558 90.6463 34.3946 89.8639 34.4967C86.5646 34.9184 83.2449 36.2858 79.3878 38.8096C72.5578 43.2722 66.3333 50.898 64.1497 57.4831C63.5034 59.4354 63.2585 61.0069 63.2993 62.9661C63.3809 66.6327 64.1292 69.7007 65.6735 72.7552C66.5306 74.4354 67.2653 75.4899 68.4354 76.6939C70.2313 78.5443 72.0544 79.6123 74.2381 80.0817C75.2449 80.2994 77.1497 80.2994 78.1429 80.0817C81.7959 79.2858 85.8503 76.3402 90.2925 71.245L90.9592 70.4831L92.0272 70.5103C93.8095 70.5579 95.619 70.3606 96.9728 69.9661C98.4286 69.5443 100.238 68.415 102.687 66.4014C103.102 66.0613 103.449 65.7824 103.476 65.7824C103.497 65.7824 103.49 66.0205 103.463 66.3062C103.354 67.5103 103.327 68.2246 103.333 70.0341C103.333 73.5647 103.633 75.6463 104.354 77.1157C104.993 78.4286 106.252 79.0069 107.313 78.4695C108.054 78.0885 108.789 77.2518 111.599 73.5375C113.653 70.83 117.571 65.8844 117.85 65.6531C117.925 65.5851 118.17 66.0205 119.143 67.9729C121.932 73.5715 123.381 75.9184 125.272 77.8844C127.483 80.1837 129.667 81.279 132.293 81.4082C133.701 81.4763 134.565 81.2858 136.02 80.5851C137.007 80.1089 137.864 79.5783 138.98 78.7348C141.918 76.5103 146.347 72.0681 151.388 66.2722C151.721 65.8912 152.007 65.5919 152.02 65.6055C152.034 65.6191 152.102 66.0341 152.177 66.5375C152.83 70.9933 155.476 76.1905 158.49 78.9252C159.422 79.7756 160.061 80.0749 160.946 80.0749C162.49 80.0817 164.51 79.0273 166.878 76.9933C169.102 75.0817 174.048 69.9116 181.014 62.2246C181.51 61.6735 181.932 61.2314 181.952 61.245C181.966 61.2654 181.912 61.4354 181.837 61.6327C181.435 62.6531 180.544 65.2654 180.095 66.7212C179.259 69.4627 178.769 71.6463 178.531 73.6871C178.381 74.9933 178.429 77.2041 178.633 78.1905C179.136 80.6395 180.109 81.6939 182.143 82.0205C185.306 82.5239 189.776 80.0885 196.095 74.415C197.442 73.2041 202.286 68.3674 203.912 66.6123C204.578 65.8912 205.129 65.313 205.143 65.3266C205.156 65.3402 205.184 65.5307 205.204 65.7552C205.524 69.1565 206.041 71.4899 207.054 74.0477C207.891 76.1701 208.728 77.5715 209.83 78.6803C211.293 80.1497 212.837 80.8436 214.986 80.9933C218.565 81.2382 223.395 78.5171 228.769 73.2314C231.027 71.0069 233.415 68.3266 235.429 65.7348L236.122 64.8436L236.109 62.5171L236.088 60.1905L235.238 60.898C231.755 63.8028 228.17 66.449 226.224 67.5511C224.531 68.5103 222.742 69.1565 221.258 69.3538C220.823 69.4082 219.476 69.4082 219.061 69.3538C216.782 69.0341 214.986 67.6803 214.327 65.7824C213.884 64.5171 214.02 62.5851 214.646 61.1361C215.293 59.6327 215.925 58.898 220.435 54.3878C222.265 52.5511 224 50.7552 224.293 50.3946C226.85 47.1973 229.646 41.9524 229.918 39.83C230.156 37.9661 229.415 36.8096 227.687 36.347C227.054 36.1769 225.218 36.1769 224.422 36.347C220.061 37.279 215.497 41.381 210.435 48.9252C209.17 50.8096 207.721 53.2518 206.918 54.8504C206.286 56.1157 205.66 58.2858 205.395 60.1293L205.272 60.9797L204.694 61.4831C204.374 61.762 203.687 62.3334 203.163 62.7552C198.986 66.0953 195.789 67.9593 193.354 68.4695C192.19 68.7144 190.735 68.5715 189.857 68.1225C189.367 67.8776 188.701 67.2246 188.449 66.7484C187.578 65.1157 187.673 61.9593 188.66 59.8572C189.027 59.0613 190.041 57.5647 192.578 54.0817C193.381 52.9797 194.197 51.8436 194.388 51.5647C195.728 49.6259 196.531 47.9797 196.531 47.1565C196.531 46.415 196.156 45.3674 194.735 42.1157C194.299 41.1293 193.966 40.2994 193.98 40.2722C194 40.245 194.095 40.1973 194.197 40.1701C194.898 39.9933 196.857 39.1089 197.272 38.7756C197.789 38.3742 198.014 37.5171 197.823 36.6735C197.707 36.1429 197.218 34.9524 196.884 34.381C196.197 33.1973 195.15 32.1157 194.299 31.7144C193.782 31.4695 193.762 31.4627 192.81 31.4422C190.313 31.381 186.707 32.3198 182.054 34.2518C177.306 36.2178 173.51 38.313 169.15 41.3878C164.054 44.9729 158.551 49.8096 155.435 53.4354C153.333 55.8912 152.463 57.7076 152.109 60.4082C152.061 60.7212 152.014 61.0069 151.993 61.0409C151.891 61.2041 146.844 65.7348 145.374 66.9797C143.578 68.5035 141.272 70.0749 139.898 70.7212C137.782 71.7076 135.796 71.8232 134.095 71.0477C133.129 70.6055 132.367 69.932 131.197 68.4695C130.578 67.6939 129.524 66.2314 129.524 66.1497C129.531 66.1157 129.871 65.8776 130.293 65.6191C134.211 63.1837 138.585 60.1361 141.565 57.7484C145.986 54.2041 148.381 51.5715 149.803 48.6735C150.844 46.5375 151.293 44.6191 151.293 42.279C151.293 39.6191 150.633 37.1905 149.524 35.796C148.558 34.5647 147.347 34.313 145.136 34.8708C142.347 35.5783 138.626 37.8368 134.204 41.5239C128.837 45.9933 120.204 54.4831 110.871 64.4831L110.272 65.1225V62.4014V59.6871L112.088 57.5443C129.905 36.5919 144.306 18.6667 149.177 11.3742C150.116 9.97285 150.551 9.24496 151.061 8.23817C151.599 7.19054 151.776 6.65313 151.83 5.95245C151.946 4.46946 151.388 3.50347 150.204 3.12252C149.619 2.93204 148.442 2.89123 147.823 3.02728ZM188.667 44.3334C183.816 51.0137 179.646 56.313 176.524 59.762C175.605 60.7756 173.476 62.8912 172.517 63.7484C169.048 66.8368 164.728 69.6871 162.932 70.0749C162.048 70.2654 161.279 69.8844 160.755 68.9865C160.218 68.0817 160 67.0817 159.993 65.5443C159.986 64.3606 160.102 63.6259 160.442 62.6055C161.442 59.6055 164.007 56.6463 168.061 53.8096C171.51 51.3946 175.918 48.8708 182.041 45.8096C184.952 44.347 190.415 41.7484 190.463 41.796C190.476 41.8096 189.667 42.9524 188.667 44.3334ZM91.7279 43.5851C90.8095 44.9865 88.2585 49.898 87.4014 51.9048C86 55.1973 85.3741 58.0001 85.3605 60.9865C85.3469 62.7552 85.5782 64.2314 86.1224 65.9456C86.2721 66.4082 86.3946 66.8028 86.3946 66.8232C86.3946 66.8708 85.3673 67.6055 84.2517 68.347C81.9048 69.9184 79.8843 70.9593 78.4014 71.3606C77.4354 71.6191 75.8503 71.5783 74.5714 71.2586C72.449 70.7212 71.3469 69.4422 71.3333 67.5171C71.3333 66.9388 71.4762 66.1497 72.1429 63.0953C72.9524 59.3606 73.0136 59.1633 73.5714 58.1089C74.3469 56.6531 75.2449 55.5103 76.8435 53.9456C79.1361 51.7076 81.4218 49.9593 85.6122 47.2382C87.517 46.0001 91.6939 43.415 91.7959 43.4082C91.8231 43.4014 91.7959 43.4831 91.7279 43.5851ZM141.939 44.6531C142.265 44.796 142.381 45.0613 142.381 45.6939C142.381 48.0341 140.163 51.762 136.218 56.0613C134.027 58.4558 130.279 61.7688 128.068 63.2654C127.769 63.4627 127.721 63.4831 127.592 63.3946C125.517 62.0613 123.748 61.3198 122.299 61.1701L121.816 61.1225L122.653 60.0681C126.238 55.5579 129.728 52.0137 133.558 49.0001C137.68 45.7552 140.755 44.1633 141.939 44.6531Z" fill="#9C9C9C"/>
<path d="M235.034 17.7552C233.592 17.8913 232.048 18.8029 230.735 20.3063C228.578 22.7688 227.347 25.3675 227.347 27.4287C227.347 28.7688 227.871 29.8233 228.952 30.6804C229.51 31.1294 230.238 31.4967 230.816 31.6396C231.381 31.7825 232.51 31.7484 233.163 31.5716C234.694 31.1634 236.204 29.9865 237.612 28.0954C238.959 26.2859 239.701 24.728 239.932 23.2042C240.034 22.5239 239.986 21.3743 239.823 20.7893C239.265 18.7212 237.401 17.5444 235.034 17.7552Z" fill="#9C9C9C"/>
</g>
<defs>
<clipPath id="clip0_12_52">
<rect width="240" height="83.0612" fill="white"/>
</clipPath>
</defs>
</svg>
