<svg xmlns="http://www.w3.org/2000/svg" width="32" height="32" fill="none"><path fill="url(#a)" d="M32 16.097C32 7.207 24.836 0 16 0S0 7.208 0 16.097C0 24.132 5.85 30.791 13.5 32V20.75H9.437v-4.655H13.5v-3.544c0-4.034 2.39-6.263 6.044-6.263 1.75 0 3.581.315 3.581.315v3.961h-2.018c-1.988 0-2.608 1.241-2.608 2.514v3.018h4.437l-.71 4.655H18.5V32C26.149 30.791 32 24.131 32 16.097Z"/><defs><linearGradient id="a" x1="16" x2="16" y1="0" y2="32" gradientUnits="userSpaceOnUse"><stop stop-color="#FFBD00"/><stop offset="1" stop-color="#F2A60C"/></linearGradient></defs></svg>