<svg xmlns="http://www.w3.org/2000/svg" width="32" height="21" fill="none"><path fill="url(#a)" d="M31.33 3.218a3.612 3.612 0 0 0-1.033-1.647A4.12 4.12 0 0 0 28.5.615C26.007 0 16 0 16 0S5.993 0 3.497.615c-.68.17-1.298.5-1.794.956A3.613 3.613 0 0 0 .669 3.218C0 5.513 0 10.302 0 10.302s0 4.788.67 7.084c.18.622.537 1.19 1.033 1.647a4.122 4.122 0 0 0 1.796.955c2.494.616 12.501.616 12.501.616s10.007 0 12.503-.616a4.12 4.12 0 0 0 1.795-.955 3.612 3.612 0 0 0 1.034-1.647C32 15.09 32 10.302 32 10.302s0-4.789-.67-7.084ZM12.728 14.649V5.955l8.364 4.347-8.364 4.347Z"/><defs><linearGradient id="a" x1="16" x2="16" y1="0" y2="20.604" gradientUnits="userSpaceOnUse"><stop stop-color="#FFBD00"/><stop offset="1" stop-color="#F2A60C"/></linearGradient></defs></svg>