<svg width="32" height="21" viewBox="0 0 32 21" fill="none" xmlns="http://www.w3.org/2000/svg">
<path d="M31.3307 3.21789C31.1499 2.5956 30.7934 2.02764 30.2968 1.57088C29.8003 1.11413 29.1811 0.7846 28.5013 0.615314C26.0067 -1.63404e-07 16 0 16 0C16 0 5.99333 -1.63404e-07 3.49733 0.615314C2.81788 0.784902 2.19906 1.11455 1.70277 1.57127C1.20648 2.02799 0.850122 2.5958 0.669333 3.21789C0 5.51341 0 10.3018 0 10.3018C0 10.3018 0 15.0903 0.669333 17.3858C0.850115 18.0081 1.20663 18.5761 1.70319 19.0328C2.19974 19.4895 2.8189 19.8191 3.49867 19.9884C5.99333 20.6037 16 20.6037 16 20.6037C16 20.6037 26.0067 20.6037 28.5027 19.9884C29.1825 19.8192 29.8017 19.4897 30.2983 19.033C30.7949 18.5762 31.1513 18.0081 31.332 17.3858C32 15.0903 32 10.3018 32 10.3018C32 10.3018 32 5.51341 31.3307 3.21789ZM12.7267 14.6492V5.95451L21.0907 10.3018L12.7267 14.6492Z" fill="url(#paint0_linear_32_243)"/>
<defs>
<linearGradient id="paint0_linear_32_243" x1="16" y1="0" x2="16" y2="20.6037" gradientUnits="userSpaceOnUse">
<stop stop-color="#FFBD00"/>
<stop offset="1" stop-color="#F2A60C"/>
</linearGradient>
</defs>
</svg>
