<svg xmlns="http://www.w3.org/2000/svg" width="290" height="98" fill="none"><g fill="#9C9C9C" clip-path="url(#a)"><path d="M176.593.05h5.639c.817.075 1.636.12 2.456.186-1.419 5.618-3.228 11.129-4.882 16.681-1.988 6.455-3.973 12.907-6.065 19.329 2.199-1.07 4.458-2.018 6.792-2.756 2.629-.821 5.314-1.82 8.116-1.526.775-.06 1.484.48 1.735 1.206.873 2.08.244 4.338.137 6.49 2.196-.506 3.383-2.575 4.9-4.038a16.574 16.574 0 0 1 8.449-3.897c2.176-.19 4.587-.15 6.441 1.15.447.642.298 1.653-.179 2.261-1.529.708-3.347.558-4.807 1.451-.522.492-.59 1.272-.829 1.913-1.794 6.026-3.693 12.028-5.251 18.12-.406 1.176.038 2.804 1.365 3.1 1.409.054 2.87.192 4.256-.146 1.153-.978 1.642-2.492 2.265-3.826 2.313-6.329 3.693-12.946 5.263-19.487.188-.74.322-1.493.424-2.249-.534-.372-1.082-.785-1.204-1.469 1.618-.962 3.609-1.205 5.418-.726 1.3.471 2.423 1.308 3.523 2.132.823.59 1.1 1.73.891 2.692-.793 5.187-2.688 10.125-3.642 15.276-.179.896.954.863 1.547.827 2.757-.288 5.344-1.535 7.6-3.109.847-.507 1.145-1.49 1.428-2.374 1.153-3.94 2.053-7.945 3.084-11.918.296-1.151.653-2.287 1.148-3.367 2.864-.443 5.839-.515 8.694.027-.027 1.625-.927 3.016-1.362 4.536 2.179-.401 4.071-1.616 6.098-2.44 2.45-1.028 5.01-2.236 7.737-1.91 1.377.054 2.808.96 3.079 2.393.569 2.065-.513 4.023-.849 6.017 1.603-.1 3.296-.759 4.295-2.072.918-1.973 1.239-4.293 2.736-5.954.465-.57 1.231-.615 1.901-.723 3.365-.45 6.766-.542 10.158-.527 3.832-.01 7.68-.012 11.492.465.763.102 1.651.398 1.872 1.244.462 1.505.268 3.142-.17 4.632-1.061 3.792-1.958 7.639-3.225 11.371-.193.378-.268 1.01-.787 1.056-2.742.41-5.522.41-8.288.446-2.715.051-5.44-.224-8.143.102-1.162 2.38-2.036 4.93-2.372 7.567-.075.98-.066 2.354 1.013 2.792 2.226.62 4.656.27 6.7-.783 1.496-.746 2.611-2.042 3.723-3.259 1.848-.018 3.701-.15 5.546.04-.325 1.891-1.153 3.654-2.149 5.276-.426.623-.858 1.292-1.511 1.69-1.612.325-3.266.264-4.9.322-5.272.035-10.562.107-15.814-.42-1.195-.07-2.477-.582-2.974-1.76-.626-1.643-.34-3.463-.021-5.145 1.097-4.233 2.909-8.244 3.961-12.493.128-.53.179-1.076.232-1.619-1.755.888-3.427 2-4.962 3.223-1.127 2.944-1.905 6.023-2.906 9.019-3.35 10.73-6.679 21.469-10.024 32.202-.187.527-.184 1.09-.166 1.646.533.17 1.09.47 1.666.263.745-.093 1.037-.851 1.362-1.424.515-.938.888-1.948 1.314-2.929 1.362-.315 2.823-.057 4.223-.11-.169 1.294-.84 2.434-1.418 3.576-1.225 2.23-2.504 4.437-3.955 6.527-.412.57-.805 1.178-1.371 1.604-1.13.521-2.406.53-3.61.743h-5.01c-1.735-.156-3.478-.258-5.186-.623.137-1.583.632-3.1 1.049-4.623 4.367-14.985 9.377-29.765 13.883-44.705.382-1.612 1.13-3.171 1.085-4.86-1.246-.344-2.503.073-3.696.426-1.272.447-2.56.92-3.698 1.661-.516.315-.68.939-.889 1.466-1.63 5.355-2.87 10.826-4.542 16.169-.298.617-.396 1.63-1.243 1.703-2.563.525-5.293.635-7.814-.15.265-3.256 1.686-6.248 2.539-9.366-2.972 1.847-6.429 2.854-9.913 2.986-.954 1.835-1.169 4.434-3.288 5.343-2.47 1.169-5.29 1-7.949 1.196-3.677.309-7.355-.03-11.036-.096-.725-.036-1.631-.03-2.03-.762-.978-1.58-2.056-3.37-1.711-5.312.418-2.851 1.338-5.595 2.048-8.38.557-2.194 1.32-4.362 1.487-6.634-1.29 1.292-2.822 2.434-4.709 2.566-2.352 6.044-3.583 12.469-5.913 18.522-3.38.468-6.855.498-10.223-.06.05-2.192.742-4.29 1.302-6.389 1.151-4.308 2.51-8.56 3.601-12.883.366-1.406.76-2.824.745-4.287-1.652.123-3.207.759-4.647 1.541-.989.57-2.033 1.268-2.417 2.414-1.478 4.008-2.399 8.193-3.612 12.286-.662 2.185-1.178 4.428-2.123 6.514-.259.789-1.18.822-1.865.918-2.498.273-5.052.369-7.532-.105.31-3.034 1.887-5.783 2.14-8.83-2.584.993-5.129 2.456-7.988 2.333-.617 1.88-1.189 3.922-2.7 5.292-1.395 1.238-3.347 1.406-5.117 1.505-3.198.06-6.391-.186-9.586-.201a16.5 16.5 0 0 0-.852 2.215c-2.319 7.466-4.36 15.012-6.575 22.51-.843 2.647-1.544 5.342-2.575 7.927-3.413.455-6.888.386-10.321.222.387-3.082 1.469-6.017 2.271-9.004 3.907-13.257 8.357-26.344 12.312-39.586-4.9 5.046-10.113 9.867-16.035 13.683-1.58.93-3.308 2.066-5.228 1.751-1.016-.21-2.336-.686-2.31-1.952-.005-2.362.945-4.578 1.616-6.802-2.48 1.235-5.109 2.518-7.946 2.434-.736 2.243-1.535 4.866-3.839 5.954-2.47 1.053-5.243.77-7.856.696-1.997 0-3.994-.168-5.988-.07-.537.466-.656 1.233-.921 1.863-3.305 10.19-5.854 20.611-9.049 30.835-2.51.383-5.06.263-7.588.317-1.037-.05-2.113.093-3.118-.203-.056-1.062.39-2.069.635-3.082 2.751-9.303 5.907-18.477 8.864-27.714.53-1.814 1.156-3.601 1.603-5.442-7.48 2.392-15.048 4.698-22.872 5.627-6.318.789-12.923.732-18.964-1.502-3.08-1.142-5.872-2.995-8.29-5.21-4.547-4.875-5.96-11.702-6.938-18.096-.3-1.437-.143-3.044-.882-4.345-1.317-.632-2.858-.467-4.283-.512-2.584.033-5.165-.096-7.749-.048v-.672c.402-1.26.838-2.554 1.758-3.535 2.295.027 4.59-.066 6.885-.027 1.458-.05 3.034.207 4.358-.57.93-.428 1.13-1.52 1.514-2.365 2.256-5.3 5.067-10.421 8.846-14.79 3.389-4.104 7.716-7.452 12.62-9.515 5.182-2.213 10.917-2.617 16.481-2.395 9.123.803 17.773 4.778 25.018 10.304-1.06 1.418-2.465 2.521-3.89 3.54-.604.384-1.242.831-1.984.84-.507-.123-.927-.453-1.371-.707-2.39-1.562-5.046-2.648-7.47-4.156-5.695-3.364-12.726-4.863-19.17-3.013-3.606.944-6.455 3.604-8.774 6.419a40.384 40.384 0 0 0-7.18 13.728c-.465 1.145.36 2.605 1.595 2.674 14.18.036 28.365-.042 42.546.04-.835 1.441-1.696 2.878-2.7 4.212-13.3-.03-26.595-.003-39.894-.015-1.213-.108-2.039 1.037-2.554 1.99-.99 2.5-.507 5.4.798 7.693 2.79 5.397 7.562 9.76 13.263 11.843 7.255 2.728 15.395 2.371 22.732.147 2.725-.774 5.327-1.934 7.81-3.292.905-.447.819-1.61 1.114-2.438a239.304 239.304 0 0 1 5.118-16.234c.518-1.232.81-2.605 1.636-3.676.778-.41 1.702-.279 2.551-.36 2.384-.006 4.796-.041 7.147.417.018 1.631-.635 3.154-1.04 4.707-2.054 7-4.417 13.908-6.381 20.939a11.04 11.04 0 0 0-.409 2.314c1.532.162 3.193.51 4.653-.159.659-.947.88-2.12 1.273-3.19 2.25-7.414 4.134-14.936 6.098-22.428.363-1.166-.513-2.099-1.353-2.746 1.919-1.149 4.259-1.023 6.413-1.08.94.057 2.03-.213 2.826.444 1.103.833 1.747 2.306 1.401 3.685-.894 5.414-2.519 10.673-3.782 16.006-.078.429-.102.864-.126 1.301.838.276 1.717.663 2.611.411 2.125-.44 3.631-2.167 4.948-3.774 1.103-1.248 1.207-2.99 1.687-4.518 1.028-3.622 1.979-7.277 3.365-10.781.289-.534.456-1.395 1.192-1.43 2.712-.504 5.496-.381 8.238-.267.402.117 1.037-.015 1.246.44-.176 1.901-.817 3.72-1.326 5.55a417.362 417.362 0 0 0-2.716 9.294 12.611 12.611 0 0 0-.474 2.962 9.13 9.13 0 0 0 1.777-1.062c3.094-2.368 6.047-4.916 9.049-7.405.524-.456 1.147-.893 1.371-1.592.819-2.24 1.308-4.59 2.226-6.796.191-.441.444-.933.963-1.038 1.585-.413 3.239-.407 4.87-.425 1.669.012 3.365-.07 5.001.35a18.296 18.296 0 0 1-.542 2.465c-2.024 6.886-4.394 13.662-6.522 20.516-.506 1.732-1.132 3.444-1.326 5.25 1.568.233 3.201.422 4.739-.088 1.064-2.305 1.609-4.803 2.39-7.21 1.684-6.131 3.344-12.274 4.891-18.441.42-1.154-.524-2.05-1.278-2.758 1.15-.81 2.584-.915 3.94-1.026 1.475-.057 2.968-.144 4.441 0 1.609.537 2.637 2.438 2.232 4.096-.784 4.425-1.982 8.76-3.094 13.107-.339 1.37-.822 2.725-.849 4.152 1.061.432 2.259.747 3.356.225 2.188-.92 3.836-2.85 5.037-4.85 2.024-5.538 3.782-11.171 5.663-16.763 3.243-10.07 6.658-20.09 9.668-30.232.397-.33.96-.297 1.443-.42Zm95.023 37.779c-.772 2.749-2.45 5.375-2.026 8.337.11.432.208 1.134.787 1.122 1.436.155 2.882.015 4.324-.006.829-2.054 1.365-4.21 1.943-6.341.263-1.197.725-2.357.758-3.592-1.199-.537-2.54-.324-3.81-.402-.715.057-1.847-.093-1.976.882Z"/><path d="M117.872 7.152c3.797-1.487 8.551 1.059 9.215 5.157 1.032 4.08-2.441 8.607-6.67 8.383-3.758.366-7.228-3.11-7.111-6.85-.14-2.918 1.842-5.733 4.566-6.69Z"/></g><defs><clipPath id="a"><path fill="#fff" d="M0 0h290v97.237H0z"/></clipPath></defs></svg>