<svg xmlns="http://www.w3.org/2000/svg" width="150" height="65" fill="none"><g fill="#9C9C9C" clip-path="url(#a)"><path d="M128.092 59.936h.667c.331 0 .568-.043.711-.125.14-.095.207-.231.207-.432a.452.452 0 0 0-.207-.405c-.137-.088-.353-.137-.627-.137h-.751v1.1Zm-.809 2.294v-4.023h1.903c.474 0 .817.103 1.033.327.212.219.323.489.323.806 0 .312-.09.56-.272.749-.18.186-.45.315-.814.376.165.062.294.15.39.261.098.105.253.34.465.695l.469.809h-1.01l-.329-.646c-.203-.39-.386-.654-.538-.796-.152-.14-.348-.213-.605-.213h-.206v1.654h-.809Zm1.762-5.073c-.926 0-1.687.302-2.264.924-.576.607-.864 1.32-.864 2.126 0 .838.294 1.56.894 2.154.601.593 1.315.893 2.153.893.835 0 1.553-.3 2.153-.893a2.946 2.946 0 0 0 .896-2.154c0-.578-.15-1.105-.453-1.589a2.919 2.919 0 0 0-1.159-1.101c-.469-.239-.927-.36-1.356-.36Zm-.191-.742c1.131 0 2.06.375 2.789 1.127.732.75 1.097 1.643 1.097 2.665 0 1.038-.371 1.932-1.11 2.674-.745.746-1.639 1.122-2.676 1.122-1.054 0-1.943-.376-2.684-1.12-.741-.736-1.105-1.632-1.105-2.676 0-.738.194-1.413.586-2.026.387-.614.877-1.064 1.463-1.344.588-.285 1.13-.422 1.64-.422ZM23.129.067l22.187.001v26.416L23.129.067Z"/><path d="m37.953 17.696.011 26.849-8.422-6.061-5.683.005-.017-14.257h5.69l8.42-6.536ZM45.315 35.135v28.981l-22.137.017 22.137-28.998ZM49.962 31.495v32.62l24.743-.018-24.743-32.601ZM68.131.044 92.326.03l.022 30.82L68.131.044ZM96.949.021l.049 64.06 23.965-.02-.041-64.055L96.949.02ZM124.405.005l.027 37.49s.702.011 7.38.002c11.88-.002 18.2-8.416 18.188-18.684C149.991 8.535 143.919-.007 131.791 0c-6.519.01-7.386.005-7.386.005ZM76.065 64.096l4.023-.004c14.86-.011 17.124-16.783 12.882-22.999-2.703-3.928-24.31-31.867-26.731-35.16-2.513-3.419.68-5.889.68-5.889l-3.942.01C48.107.064 45.845 16.939 50.094 23.15c2.694 3.934 24.034 32.079 26.726 35.171 3.033 3.478-.755 5.775-.755 5.775ZM22.317 64.136V.081L0 .102l.042 64.052 22.275-.018Z"/></g><defs><clipPath id="a"><path fill="#fff" d="M0 0h150v64.154H0z"/></clipPath></defs></svg>