<svg xmlns="http://www.w3.org/2000/svg" width="220" height="115" fill="none"><path fill="#9C9C9C" d="M51.678 27.388c3.96 0 7.172-2.648 7.172-5.913s-3.212-5.913-7.172-5.913c-3.96 0-7.172 2.648-7.172 5.913 0 3.264 3.211 5.913 7.172 5.913Z"/><path fill="#9C9C9C" d="M39.776 34.682V22.046c0-4.293-5.148-8.197-9.13-7.215-3.96.994-20.592 5.183-21.275 5.434C8.691 20.526 0 23.29 0 31.133l.131 50.957s.375 5.126 6.843 5.023c0 0 1.892 0 4.927-1.358 0 0 7.481-3.379 7.987-3.562.483-.17 4.554-1.244 4.686 3.345v28.618l12.277-3.243V85.537c0-1.724 1.518-10.252 6.841-13.778.33-.229 2.905-1.598 5.192.936 2.31 2.535 4.312 2.922 4.312 2.922s2.486.902 4.688-2.191c.13-.217 4.004-5.502 4.18-5.742.175-.24.747-.948 2.396-.833 0 0 4.072-.217 3.432 4.486 0 0 18.833-4.715 20.394-5.434.241-.08 7.436-2.454 11.77-7.934 0 0 1.298-1.575 2.925-1.46.286 0 4.291.205 3.148 4.589 0 0 18.259-4.6 19.271-5.011 2.156-.73 7.854-2.683 7.723-8.14.066-1.62-.462-4.451-3.301-6.483-.153-.126-12.562-7.66-12.672-7.728-1.078-.754-1.628-2.466.131-4.281 0 0 1.387-1.667 3.432-1.564 0 0 1.541-.057 3.918 2.512.307.25 2.067 2.192 3.299 2.397 0 0 1.012.274 2.266-.73 3.081-2.204 4.687-2.295 4.687-2.295s4.443-1.05 4.443 3.128v8.778c0 1.918 3.058 7.797 10.011 7.512 0 0 2.397-.206 4.686-.73l7.458-1.975s9.393-2.328 12.671-7.317c0 0 1.562-2.5 3.806-2.5 0 0 3.916-.422 3.542 4.487l10.648-2.923V17.034s-.307-2.511 3.278-2.511c3.543 0 3.432 2.294 3.432 2.294v43.868c0 1.233 1.562 5.068 6.71 5.011 0 0 14.432-.102 14.432-10.24v-3.858l-3.674 1.04V56.3s.243 2.466-3.168 2.603c-.308.057-3.652-.046-3.542-2.717V2.514s-.263-2.511-3.301-2.511c0 0-2.771-.206-4.928 2.933-2.156 3.128-2.925 5.525-5.829 5.525 0 0-3.454.343-3.411-2.192V3.553l-10.911 2.933v10.33c0 2.57-2.332 15.309-6.446 15.354-.287.034-4.158.48-4.313-2.717V17.444c.11-1.62-1.429-6.461-6.336-5.946l-4.42.73v26.004c0 .799-.354 4.634-5.59 4.805-.461.057-5.565-.114-5.565-4.178V21.943s-.242-3.036 3.431-3.242l.11-4.384s-11.133 2.09-16.324 9.818c-.615.548-1.913 1.038-2.794 1.038-.527 0-3.035-.125-3.167-2.192v-2.819l-18.37 5.01s-7.216 1.885-7.216 7.946c0 0 0 4.178 3.168 6.153l12.804 7.945s2.178 1.28 1.122 3.448c-.134.365-1.629 2.865-4.687 2.922-.595.057-2.531 0-3.675-2.408 0 0-1.011-3.129-4.289-2.192 0 0-6.16 1.78-6.599 1.883-.417.103-4.049.628-4.049-2.922v-11.7c0-.869-1.298-5.822-6.335-5.64 0 0-2.905.206-5.433 1.153v5.114s3.41-.422 3.41 3.232v17.658s.153 4.407-5.435 4.487c-4.687-.046-5.456-3.733-5.456-4.178-.045-2.5.132-56.288.132-56.288L67.76 5.335l.131 38.536s-.681 12.51-4.95 17.34c-1.23 1.381-5.566 1.381-5.94-1.679V39.693l-10.89 2.82v8.036c0 1.348-1.518 17.305-7.084 17.077-.704.012-2.2-.628-2.223-3.367l.067-19.44-10.648 3.128s-.11 10.684-.133 11.278c-.33 3.425.263 18.903-12.165 18.903 0 0-3.037.103-3.037-2.922v-43.24s.352-4.886 4.95-6.588c0 0 4.687-1.38 5.699-1.666.99-.285 4.817 0 4.817 3.448v10.97l13.421-3.448ZM211.2 3.393c0-1.701 1.649-2.808 3.498-2.808 1.848 0 3.497 1.107 3.497 2.808 0 1.724-1.649 2.82-3.497 2.82-1.849 0-3.498-1.096-3.498-2.82Zm3.498-2.215c-1.453 0-2.597.926-2.597 2.216 0 1.3 1.145 2.225 2.597 2.225 1.429 0 2.596-.925 2.596-2.225 0-1.291-1.167-2.216-2.596-2.216Zm-.617 3.79h-.748v-3.15h1.453c.946 0 1.473.25 1.473.935 0 .57-.418.799-.923.845l.923 1.37h-.835l-.858-1.347h-.485v1.347Zm0-1.827h.661c.549 0 .748-.147.748-.444 0-.297-.241-.388-.791-.388h-.617l-.001.832Z"/></svg>