<svg xmlns="http://www.w3.org/2000/svg" width="240" height="84" fill="none"><g fill="#9C9C9C" clip-path="url(#a)"><path d="M39.116.014c-.02.02-.429.054-.919.081-1.72.089-3.966.381-7.347.96-.973.163-3.238.55-5.034.85-5.02.85-7.353 1.347-9.959 2.143-3.388 1.027-6.068 2.306-8.21 3.918-3.953 2.973-6.082 7.449-7.34 15.442-.552 3.504-.327 4.837.931 5.476.381.19 1.265.402 1.993.47.266.027.551.061.647.081.346.082 11.693.103 12.265.028 1.83-.245 1.21-1.123-1.238-1.742-1.51-.38-3.408-.707-5.177-.884-1.327-.136-1.823-.252-2.027-.483-.245-.28-.198-.483.204-.878.687-.66 2.394-1.401 6.21-2.687 2.477-.837 3.286-1.15 5.103-1.973 2.762-1.258 4.653-1.83 7.993-2.415 3.898-.687 6.83-1.02 10.238-1.156 2.428-.095 14.946-.157 15.986-.075.266.02.796.055 1.19.075.75.04 1.92.163 1.967.204.013.014-.367.524-.85 1.136-6.633 8.442-11.858 15.51-17.103 23.116-3.313 4.81-7.49 11.333-9.707 15.17-5.306 9.17-8.15 15.735-8.735 20.163-.102.79-.047 2.388.102 2.932.442 1.599 1.599 2.755 3.02 3.034 1.83.354 5.872-.891 8.688-2.673 1.47-.932 2.823-2.143 3.673-3.286.817-1.088 5.34-9.102 5.34-9.45 0-.04-.415-.38-.918-.754-.503-.368-.918-.715-.918-.762 0-.095 1.666-3.49 2.503-5.089 3.728-7.163 9.19-16.619 16.66-28.843 1.599-2.612 2.388-3.782 4.462-6.565 2.143-2.87 4.041-5.598 4.164-5.986.163-.503 3.224-.898 16.666-2.143 5.014-.463 9.742-.939 10.817-1.088.115-.02.694-.096 1.292-.17 3.055-.395 4.64-.756 4.762-1.075.082-.218.027-.388-2.38-7.497-1.062-3.136-1.286-3.646-1.892-4.252-.483-.483-1.578-1.23-2.272-1.544-.735-.326-1.748-.64-2.952-.898-1.98-.422-2.538-.47-6.082-.55C80.599.278 75.646.21 69.898.17 67.245.15 64.245.116 63.23.102 60.551.048 39.156-.02 39.116.014ZM147.823 3.027c-.769.17-1.34.381-2.231.817-.973.476-1.633.898-3.231 2.06-.606.443-1.456 1.055-1.885 1.361-1.408 1-2.483 2.041-5.041 4.912-3.721 4.17-8.238 9.687-13.469 16.428-5.639 7.273-10.136 13.973-12.986 19.354-2.014 3.81-3.613 8.007-4.524 11.905l-.184.782-1.476 1.096c-1.755 1.313-2.333 1.693-3.238 2.142-.885.443-1.252.531-2.28.579l-.85.04-.57-.578-.566-.578.558-.973c1.878-3.279 3.395-7.272 4.252-11.19.347-1.606.51-3.007.51-4.402 0-3.081-.524-4.401-2.075-5.197-.462-.238-.816-.367-1.918-.687-.143-.048-.13-.075.258-.571.225-.286.51-.735.64-1 1.109-2.245-.34-4.136-3.64-4.735-.768-.136-3.23-.197-4.013-.095-3.3.421-6.62 1.789-10.476 4.313-6.83 4.462-13.055 12.088-15.238 18.673-.647 1.952-.892 3.524-.85 5.483.08 3.667.83 6.735 2.374 9.79.857 1.68 1.591 2.734 2.761 3.938 1.796 1.85 3.62 2.918 5.803 3.388 1.007.217 2.912.217 3.905 0 3.653-.796 7.707-3.742 12.15-8.837l.666-.762 1.068.027c1.782.048 3.592-.15 4.946-.544 1.456-.422 3.265-1.551 5.714-3.565.415-.34.762-.619.789-.619.021 0 .014.239-.013.524-.109 1.204-.136 1.919-.13 3.728 0 3.53.3 5.612 1.021 7.082.639 1.313 1.898 1.89 2.959 1.353.741-.38 1.476-1.217 4.286-4.931 2.054-2.708 5.972-7.654 6.251-7.885.075-.068.32.367 1.293 2.32 2.789 5.599 4.238 7.945 6.129 9.911 2.211 2.3 4.395 3.395 7.021 3.524 1.408.068 2.272-.122 3.727-.823.987-.476 1.844-1.007 2.96-1.85 2.938-2.225 7.367-6.667 12.408-12.463.333-.38.619-.68.632-.666.014.013.082.428.157.931.653 4.456 3.299 9.653 6.313 12.388.932.85 1.571 1.15 2.456 1.15 1.544.007 3.564-1.048 5.932-3.082 2.224-1.911 7.17-7.081 14.136-14.768.496-.552.918-.994.938-.98.014.02-.04.19-.115.388-.402 1.02-1.293 3.632-1.742 5.088-.836 2.742-1.326 4.925-1.564 6.966-.15 1.306-.102 3.517.102 4.504.503 2.448 1.476 3.503 3.51 3.83 3.163.503 7.633-1.933 13.952-7.606 1.347-1.21 6.191-6.048 7.817-7.803.666-.72 1.217-1.299 1.231-1.285.013.013.041.204.061.428.32 3.401.837 5.735 1.85 8.293.837 2.122 1.674 3.523 2.776 4.632 1.463 1.47 3.007 2.164 5.156 2.313 3.579.245 8.409-2.476 13.783-7.762a78.69 78.69 0 0 0 6.66-7.496l.693-.891-.013-2.327-.021-2.327-.85.708c-3.483 2.905-7.068 5.551-9.014 6.653-1.693.96-3.482 1.605-4.966 1.803-.435.054-1.782.054-2.197 0-2.279-.32-4.075-1.674-4.734-3.572-.443-1.265-.307-3.197.319-4.646.647-1.503 1.279-2.238 5.789-6.748 1.83-1.837 3.565-3.633 3.858-3.993 2.557-3.198 5.353-8.443 5.625-10.565.238-1.864-.503-3.02-2.231-3.483-.633-.17-2.469-.17-3.265 0-4.361.932-8.925 5.034-13.987 12.578-1.265 1.885-2.714 4.327-3.517 5.925-.632 1.266-1.258 3.436-1.523 5.28l-.123.85-.578.503c-.32.279-1.007.85-1.531 1.272-4.177 3.34-7.374 5.204-9.809 5.714-1.164.245-2.619.103-3.497-.346-.49-.245-1.156-.898-1.408-1.375-.871-1.632-.776-4.789.211-6.89.367-.797 1.381-2.293 3.918-5.776a184.24 184.24 0 0 0 1.81-2.517c1.34-1.94 2.143-3.585 2.143-4.408 0-.742-.375-1.79-1.796-5.041-.436-.987-.769-1.817-.755-1.844a.527.527 0 0 1 .217-.102c.701-.177 2.66-1.061 3.075-1.394.517-.402.742-1.259.551-2.103-.116-.53-.605-1.72-.939-2.292-.687-1.184-1.734-2.265-2.585-2.667-.517-.244-.537-.251-1.489-.272-2.497-.061-6.103.878-10.756 2.81-4.748 1.966-8.544 4.061-12.904 7.136-5.096 3.585-10.599 8.422-13.715 12.047-2.102 2.456-2.972 4.273-3.326 6.973-.048.313-.095.599-.116.633-.102.163-5.149 4.694-6.619 5.939-1.796 1.523-4.102 3.095-5.476 3.741-2.116.987-4.102 1.102-5.803.327-.966-.442-1.728-1.116-2.898-2.579-.619-.775-1.673-2.238-1.673-2.32.007-.033.347-.271.769-.53 3.918-2.435 8.292-5.483 11.272-7.87 4.421-3.545 6.816-6.178 8.238-9.076 1.041-2.136 1.49-4.054 1.49-6.394 0-2.66-.66-5.089-1.769-6.483-.966-1.231-2.177-1.483-4.388-.925-2.789.707-6.51 2.966-10.932 6.653-5.367 4.47-14 12.96-23.333 22.96l-.599.639v-5.436l1.816-2.143c17.817-20.952 32.218-38.877 37.089-46.17.939-1.401 1.374-2.129 1.884-3.136.538-1.047.715-1.585.769-2.286.116-1.483-.442-2.449-1.626-2.83-.585-.19-1.762-.23-2.381-.095Zm40.844 41.306c-4.851 6.68-9.021 11.98-12.143 15.429-.919 1.014-3.048 3.13-4.007 3.986-3.469 3.089-7.789 5.94-9.585 6.327-.884.19-1.653-.19-2.177-1.088-.537-.905-.755-1.905-.762-3.443-.007-1.183.109-1.918.449-2.938 1-3 3.565-5.96 7.619-8.796 3.449-2.415 7.857-4.94 13.98-8 2.911-1.463 8.374-4.062 8.422-4.014.013.014-.796 1.156-1.796 2.537Zm-96.94-.748c-.918 1.401-3.469 6.313-4.326 8.32C86 55.197 85.374 58 85.361 60.986c-.014 1.77.217 3.245.761 4.96.15.462.273.857.273.877 0 .048-1.028.783-2.143 1.524-2.347 1.571-4.368 2.612-5.85 3.014-.967.258-2.552.217-3.83-.102-2.123-.538-3.225-1.817-3.239-3.742 0-.578.143-1.367.81-4.422.81-3.734.87-3.932 1.428-4.986.776-1.456 1.674-2.599 3.273-4.163 2.292-2.238 4.578-3.987 8.768-6.708 1.905-1.238 6.082-3.823 6.184-3.83.027-.007 0 .075-.068.177Zm50.212 1.068c.326.143.442.408.442 1.04 0 2.341-2.218 6.069-6.163 10.368-2.191 2.395-5.939 5.708-8.15 7.204-.299.198-.347.218-.476.13-2.075-1.334-3.844-2.075-5.293-2.225l-.483-.047.837-1.055c3.585-4.51 7.075-8.054 10.905-11.068 4.122-3.245 7.197-4.837 8.381-4.347ZM235.034 17.755c-1.442.136-2.986 1.048-4.299 2.551-2.157 2.463-3.388 5.061-3.388 7.123 0 1.34.524 2.394 1.605 3.251.558.45 1.286.817 1.864.96.565.142 1.694.108 2.347-.068 1.531-.409 3.041-1.585 4.449-3.477 1.347-1.81 2.089-3.367 2.32-4.89.102-.681.054-1.83-.109-2.416-.558-2.068-2.422-3.245-4.789-3.034Z"/></g><defs><clipPath id="a"><path fill="#fff" d="M0 0h240v83.061H0z"/></clipPath></defs></svg>