<svg xmlns="http://www.w3.org/2000/svg" width="17" height="13" fill="none"><path fill="url(#a)" d="M15.33 0H1.996C1.08 0 .338.685.338 1.523L.33 10.662c0 .838.75 1.523 1.666 1.523H15.33c.916 0 1.666-.685 1.666-1.523V1.523C16.996.685 16.246 0 15.33 0Zm-.334 3.237-5.89 3.366a.903.903 0 0 1-.885 0l-5.89-3.366a.692.692 0 0 1-.213-.171.593.593 0 0 1-.035-.733.676.676 0 0 1 .195-.187.773.773 0 0 1 .802-.006l5.583 3.191 5.583-3.19a.746.746 0 0 1 .543-.098.743.743 0 0 1 .26.103c.077.05.144.114.194.187a.591.591 0 0 1 .086.5.624.624 0 0 1-.121.233.69.69 0 0 1-.212.17Z"/><defs><linearGradient id="a" x1="8.663" x2="8.663" y1="0" y2="12.185" gradientUnits="userSpaceOnUse"><stop stop-color="#FFBD00"/><stop offset="1" stop-color="#F2A60C"/></linearGradient></defs></svg>