<svg xmlns="http://www.w3.org/2000/svg" width="19" height="19" fill="none"><path fill="#9C9C9C" d="M.834 4.166a.835.835 0 0 0 .832-.832V2.5a.838.838 0 0 1 .834-.834h.834a.835.835 0 0 0 .832-.832A.836.836 0 0 0 3.334 0H2.5A2.496 2.496 0 0 0 0 2.5v.834c0 .457.375.832.834.832Zm2.5 12.5H2.5a.837.837 0 0 1-.834-.832V15a.835.835 0 0 0-.832-.832A.836.836 0 0 0 0 15v.834c0 1.384 1.116 2.5 2.5 2.5h.834a.836.836 0 0 0 .832-.834.835.835 0 0 0-.832-.832v-.002ZM15.834 0H15a.836.836 0 0 0-.833.834c0 .457.375.832.833.832h.833c.459 0 .834.375.834.834v.834c0 .457.375.832.833.832a.835.835 0 0 0 .833-.832V2.5c0-1.384-1.116-2.5-2.5-2.5ZM17.5 14.166a.836.836 0 0 0-.834.834v.834a.836.836 0 0 1-.833.834H15a.836.836 0 0 0-.833.832c0 .459.375.834.833.834h.833c1.384 0 2.5-1.116 2.5-2.5V15a.835.835 0 0 0-.833-.832v-.002ZM15 11.56V6.775c0-.6-.317-1.15-.833-1.441L10 2.934a1.646 1.646 0 0 0-1.667 0l-4.166 2.39c-.517.3-.834.85-.834 1.45v4.783c0 .6.317 1.15.834 1.442l4.166 2.4a1.646 1.646 0 0 0 1.667 0L14.167 13A1.65 1.65 0 0 0 15 11.559h-.001Zm-6.667 1.916L5 11.559V7.7l3.333 1.941v3.834ZM9.166 8.2l-3.3-1.925 3.3-1.9 3.3 1.9-3.3 1.925Zm4.166 3.359L10 13.475V9.641L13.332 7.7v3.859Z"/></svg>