<svg width="32" height="32" viewBox="0 0 32 32" fill="none" xmlns="http://www.w3.org/2000/svg">
<g clip-path="url(#clip0_103_144)">
<circle cx="16" cy="16" r="16" fill="white"/>
<path d="M15.3096 5.00504C14.115 5.06487 13.1784 5.18246 12.2562 5.38671C8.77167 6.1583 6.66527 7.94698 6.13918 10.5836C5.74926 12.5373 6.17632 14.8769 7.44924 17.7528C7.68649 18.2851 8.28891 19.4837 8.61487 20.0634C8.96353 20.6865 9.58452 21.7469 9.98888 22.4091C12.8112 27.0346 14.9299 29.3287 16.176 29.1121C16.7104 29.0192 17.2715 28.6479 18.0328 27.8845C19.3449 26.5704 20.9211 24.3195 22.8439 21.0228C23.731 19.5002 24.2963 18.3903 24.7997 17.1854C25.7508 14.9016 26.1407 12.8922 25.955 11.2128C25.7982 9.7955 25.2453 8.60923 24.2942 7.65403C22.8233 6.1748 20.4528 5.28974 17.3128 5.04424C16.9414 5.01535 15.6231 4.98853 15.3096 5.00504Z" fill="url(#paint0_linear_103_144)"/>
</g>
<defs>
<linearGradient id="paint0_linear_103_144" x1="16" y1="29.1261" x2="16" y2="4.99999" gradientUnits="userSpaceOnUse">
<stop stop-color="#FFB60D"/>
<stop offset="1" stop-color="#E59317"/>
</linearGradient>
<clipPath id="clip0_103_144">
<rect width="32" height="32" fill="white"/>
</clipPath>
</defs>
</svg>
