<svg xmlns="http://www.w3.org/2000/svg" width="136" height="73" fill="none"><g clip-path="url(#a)"><path fill="#fff" d="M.126 25.141V.85h4.72v20.152h12.38v4.14H.126Zm27.705.343c-1.436 0-2.736-.24-3.899-.719-1.163-.502-2.154-1.175-2.975-2.018a9.633 9.633 0 0 1-1.915-2.943 9.666 9.666 0 0 1-.65-3.524c0-1.71.376-3.273 1.128-4.687a8.832 8.832 0 0 1 3.284-3.387c1.436-.867 3.123-1.3 5.061-1.3 1.961 0 3.637.433 5.028 1.3 1.39.844 2.45 1.973 3.18 3.387a9.345 9.345 0 0 1 1.129 4.516c0 .274-.011.559-.034.855-.023.274-.046.502-.069.685H23.25c.09.912.353 1.71.786 2.395a4.696 4.696 0 0 0 1.71 1.573c.707.342 1.459.514 2.257.514.912 0 1.767-.217 2.565-.65.82-.457 1.38-1.05 1.676-1.78l3.933 1.095c-.433.913-1.06 1.722-1.881 2.43-.798.707-1.744 1.265-2.839 1.676-1.094.388-2.303.582-3.625.582ZM23.146 14.74h9.37c-.09-.912-.353-1.699-.786-2.36a4.185 4.185 0 0 0-1.642-1.574c-.684-.388-1.448-.582-2.291-.582-.82 0-1.573.194-2.257.582a4.512 4.512 0 0 0-1.642 1.574c-.41.661-.661 1.448-.752 2.36Zm23.449 10.744a12.8 12.8 0 0 1-4.378-.753c-1.39-.502-2.588-1.243-3.591-2.224l1.642-2.977c1.071.867 2.12 1.506 3.146 1.916 1.049.41 2.052.616 3.01.616.889 0 1.596-.16 2.12-.479.547-.32.82-.798.82-1.437 0-.433-.147-.764-.444-.992-.296-.25-.73-.468-1.3-.65a49.844 49.844 0 0 0-2.017-.616c-1.323-.433-2.428-.855-3.318-1.266-.889-.41-1.561-.924-2.017-1.54-.434-.638-.65-1.448-.65-2.429 0-1.186.296-2.2.889-3.045.616-.866 1.459-1.54 2.53-2.018 1.095-.48 2.372-.719 3.831-.719 1.277 0 2.485.206 3.625.616 1.14.388 2.178 1.027 3.113 1.916l-1.847 2.908c-.912-.707-1.779-1.22-2.6-1.54a6.438 6.438 0 0 0-2.496-.513c-.479 0-.935.057-1.368.172-.41.114-.753.307-1.026.581-.251.251-.376.616-.376 1.095 0 .433.114.776.342 1.026.25.229.615.434 1.094.616.502.183 1.106.388 1.813.616 1.436.41 2.645.833 3.625 1.266 1.003.433 1.756.97 2.257 1.608.502.616.753 1.471.753 2.566 0 1.78-.65 3.17-1.95 4.174-1.3 1.004-3.044 1.506-5.232 1.506Zm18.96-.343V.85h10.294c1.117 0 2.143.228 3.078.684a7.719 7.719 0 0 1 2.428 1.847 8.654 8.654 0 0 1 1.642 2.6c.387.959.581 1.94.581 2.943 0 1.369-.32 2.669-.958 3.9a8.195 8.195 0 0 1-2.633 3.011c-1.117.776-2.44 1.163-3.967 1.163h-5.746v8.143h-4.72Zm4.72-12.282h5.471c.57 0 1.083-.16 1.54-.48.455-.319.82-.775 1.094-1.368.273-.616.41-1.311.41-2.087 0-.844-.16-1.562-.479-2.155-.296-.593-.695-1.038-1.197-1.335a2.931 2.931 0 0 0-1.573-.445h-5.267v7.87Zm14.678 6.98c0-1.164.32-2.179.958-3.046.661-.89 1.573-1.574 2.736-2.053 1.163-.479 2.496-.718 4.001-.718.753 0 1.517.057 2.292.171.775.114 1.448.296 2.018.547v-.958c0-1.14-.342-2.018-1.026-2.634-.662-.616-1.654-.924-2.976-.924-.98 0-1.915.171-2.804.513-.89.342-1.824.844-2.805 1.506l-1.47-3.011c1.185-.775 2.394-1.357 3.625-1.745a13.236 13.236 0 0 1 3.933-.582c2.553 0 4.537.64 5.95 1.916 1.437 1.278 2.155 3.103 2.155 5.475v5.713c0 .48.08.822.24 1.027.182.205.467.33.855.376v3.73c-.411.068-.787.125-1.129.17a5.934 5.934 0 0 1-.821.069c-.912 0-1.607-.205-2.086-.616a2.651 2.651 0 0 1-.855-1.505l-.102-.924a7.834 7.834 0 0 1-2.907 2.326c-1.163.548-2.349.822-3.557.822-1.186 0-2.257-.24-3.215-.719-.935-.502-1.676-1.175-2.223-2.018-.525-.867-.787-1.837-.787-2.909Zm11.15.923c.25-.274.456-.547.615-.821.16-.274.24-.525.24-.753v-1.813a8.488 8.488 0 0 0-1.779-.513 8.658 8.658 0 0 0-1.813-.206c-1.185 0-2.166.263-2.94.787-.753.502-1.13 1.175-1.13 2.019 0 .456.126.89.377 1.3.25.41.615.741 1.094.992.48.251 1.049.377 1.71.377.684 0 1.357-.126 2.018-.377.661-.274 1.197-.604 1.608-.992Zm9.549-2.326V7.213h4.583v10.23c0 1.369.251 2.407.752 3.114.502.684 1.243 1.026 2.223 1.026.593 0 1.175-.114 1.744-.342a5.04 5.04 0 0 0 1.608-1.095c.501-.479.923-1.083 1.265-1.813V7.213h4.583V20.01c0 .48.08.822.24 1.027.182.205.467.33.855.376v3.73c-.457.068-.844.114-1.163.136-.297.046-.57.069-.821.069-.821 0-1.493-.183-2.018-.548-.501-.387-.798-.912-.889-1.573l-.103-1.438a7.981 7.981 0 0 1-3.078 2.772c-1.254.616-2.633.924-4.138.924-1.847 0-3.249-.594-4.207-1.78-.957-1.208-1.436-2.965-1.436-5.268ZM126.93.166h4.583v19.227c0 .822.137 1.38.41 1.677.274.274.65.41 1.129.41.365 0 .741-.045 1.129-.136a5.436 5.436 0 0 0 1.026-.342l.615 3.49c-.615.296-1.333.524-2.154.684-.821.16-1.562.24-2.223.24-1.437 0-2.554-.377-3.352-1.13-.775-.775-1.163-1.87-1.163-3.284V.165ZM19.617 65.405a10.76 10.76 0 0 1-4.48-.957 12.035 12.035 0 0 1-3.694-2.635 12.649 12.649 0 0 1-2.462-3.968c-.593-1.506-.89-3.137-.89-4.893 0-1.665.297-3.228.89-4.687a12.025 12.025 0 0 1 2.496-3.9 11.8 11.8 0 0 1 3.762-2.635c1.437-.639 2.999-.958 4.686-.958 2.28 0 4.23.49 5.848 1.471 1.642.958 2.873 2.235 3.694 3.832l-3.523 2.6c-.616-1.209-1.482-2.133-2.6-2.771a7 7 0 0 0-3.59-.958c-1.026 0-1.961.217-2.805.65a6.845 6.845 0 0 0-2.189 1.78 8.474 8.474 0 0 0-1.436 2.6 9.997 9.997 0 0 0-.479 3.113c0 1.163.171 2.235.513 3.216.365.98.867 1.836 1.505 2.566a7.742 7.742 0 0 0 2.292 1.745c.866.41 1.824.616 2.872.616 1.232 0 2.406-.32 3.523-.958 1.14-.639 2.2-1.574 3.18-2.806v4.653c-2.029 2.19-4.4 3.285-7.113 3.285Zm6.772-9.203h-4.891v-3.455h8.79v12.488h-3.9v-9.033Zm6.245 3.73c0-1.164.32-2.179.958-3.045.66-.89 1.573-1.574 2.736-2.053 1.163-.48 2.496-.719 4.001-.719.753 0 1.516.057 2.292.171.775.114 1.447.297 2.017.548v-.958c0-1.14-.341-2.019-1.026-2.635-.66-.616-1.653-.923-2.975-.923-.98 0-1.915.17-2.804.513-.89.342-1.825.844-2.805 1.505l-1.47-3.01c1.185-.776 2.394-1.358 3.625-1.746A13.235 13.235 0 0 1 41.116 47c2.553 0 4.537.638 5.95 1.916 1.437 1.277 2.155 3.102 2.155 5.474v5.714c0 .479.08.82.24 1.026.182.205.467.33.855.376v3.73c-.41.068-.787.125-1.129.17-.32.046-.593.07-.82.07-.913 0-1.608-.206-2.087-.617a2.65 2.65 0 0 1-.855-1.505l-.102-.924a7.835 7.835 0 0 1-2.908 2.327c-1.162.547-2.348.82-3.556.82-1.186 0-2.258-.239-3.215-.718-.935-.501-1.676-1.174-2.223-2.018-.525-.867-.787-1.836-.787-2.908Zm11.15.923c.25-.273.455-.547.615-.82.16-.275.24-.526.24-.754V57.47a8.499 8.499 0 0 0-1.779-.513 8.659 8.659 0 0 0-1.813-.205c-1.185 0-2.166.262-2.94.787-.753.501-1.13 1.174-1.13 2.018 0 .457.126.89.377 1.3.25.41.615.742 1.094.993.479.25 1.049.376 1.71.376.684 0 1.357-.125 2.018-.376.661-.274 1.197-.605 1.607-.993Zm20.39-9.58c-1.39 0-2.633.274-3.728.822-1.094.524-1.88 1.288-2.36 2.292v10.846h-4.582V47.308h4.207v3.832c.638-1.232 1.447-2.202 2.428-2.909.98-.706 2.017-1.094 3.112-1.163h.581c.137 0 .251.012.342.034v4.175Zm1.224 8.657c0-1.164.32-2.179.958-3.045.661-.89 1.573-1.574 2.736-2.053 1.163-.48 2.497-.719 4.001-.719.753 0 1.516.057 2.292.171.775.114 1.447.297 2.018.548v-.958c0-1.14-.342-2.019-1.026-2.635-.662-.616-1.653-.923-2.976-.923-.98 0-1.915.17-2.804.513-.89.342-1.824.844-2.805 1.505l-1.47-3.01c1.185-.776 2.394-1.358 3.625-1.746A13.236 13.236 0 0 1 73.88 47c2.554 0 4.537.638 5.95 1.916 1.437 1.277 2.156 3.102 2.156 5.474v5.714c0 .479.08.82.239 1.026.182.205.467.33.855.376v3.73c-.41.068-.787.125-1.129.17-.319.046-.592.07-.82.07-.913 0-1.608-.206-2.087-.617a2.65 2.65 0 0 1-.855-1.505l-.102-.924a7.836 7.836 0 0 1-2.907 2.327c-1.163.547-2.349.82-3.557.82-1.186 0-2.257-.239-3.215-.718-.935-.501-1.676-1.174-2.223-2.018-.525-.867-.787-1.836-.787-2.908Zm11.15.923c.25-.273.456-.547.615-.82.16-.275.24-.526.24-.754V57.47a8.5 8.5 0 0 0-1.779-.513 8.66 8.66 0 0 0-1.812-.205c-1.186 0-2.166.262-2.942.787-.752.501-1.128 1.174-1.128 2.018 0 .457.125.89.376 1.3.25.41.616.742 1.094.993.48.25 1.05.376 1.71.376.684 0 1.357-.125 2.018-.376.661-.274 1.197-.605 1.608-.993Zm16.731 4.482c-1.186 0-2.28-.228-3.283-.684a8.01 8.01 0 0 1-2.565-1.984 9.328 9.328 0 0 1-1.642-2.909 10.377 10.377 0 0 1-.581-3.49c0-1.3.205-2.508.615-3.626a9.402 9.402 0 0 1 1.71-2.942 7.655 7.655 0 0 1 2.634-1.985c1.026-.479 2.155-.718 3.386-.718 1.39 0 2.61.32 3.66.958a7.769 7.769 0 0 1 2.598 2.497v-3.147h4.002V64.38c0 1.78-.433 3.296-1.3 4.55-.844 1.278-2.018 2.247-3.522 2.909-1.505.684-3.215 1.026-5.13 1.026-1.939 0-3.58-.33-4.925-.992a9.791 9.791 0 0 1-3.455-2.737l2.497-2.43a7.134 7.134 0 0 0 2.565 1.985 7.894 7.894 0 0 0 3.318.719c.98 0 1.87-.183 2.667-.548.821-.342 1.47-.89 1.95-1.642.501-.73.752-1.676.752-2.84v-2.258c-.593 1.027-1.436 1.825-2.53 2.395a7.414 7.414 0 0 1-3.42.821Zm1.54-3.66c.5 0 .98-.08 1.436-.24a5.112 5.112 0 0 0 2.291-1.608c.296-.388.524-.776.684-1.163V54.39a5.532 5.532 0 0 0-1.163-1.848 4.909 4.909 0 0 0-1.641-1.197 4.152 4.152 0 0 0-1.881-.445c-.707 0-1.346.148-1.916.445-.57.296-1.06.718-1.47 1.266a6.076 6.076 0 0 0-.958 1.779 6.558 6.558 0 0 0-.308 2.019c0 .73.126 1.414.376 2.052.251.639.593 1.198 1.027 1.677.455.479.98.855 1.573 1.129.615.274 1.265.41 1.95.41Zm21.436 3.9c-1.437 0-2.736-.24-3.899-.719-1.163-.501-2.155-1.174-2.976-2.018a9.648 9.648 0 0 1-1.915-2.943 9.67 9.67 0 0 1-.65-3.524c0-1.71.377-3.273 1.129-4.687a8.826 8.826 0 0 1 3.283-3.387c1.437-.867 3.124-1.3 5.062-1.3 1.96 0 3.636.433 5.027 1.3 1.391.844 2.451 1.973 3.181 3.387a9.35 9.35 0 0 1 1.129 4.516c0 .274-.012.56-.035.856-.023.273-.045.501-.068.684h-13.851c.091.912.353 1.71.786 2.395a4.694 4.694 0 0 0 1.71 1.574c.707.342 1.46.513 2.258.513.912 0 1.767-.217 2.565-.65.82-.456 1.379-1.05 1.675-1.78l3.934 1.096a7.37 7.37 0 0 1-1.882 2.429c-.798.707-1.744 1.266-2.838 1.676-1.095.388-2.303.582-3.625.582Zm-4.686-10.743h9.371c-.091-.913-.353-1.7-.787-2.361a4.18 4.18 0 0 0-1.641-1.574c-.684-.388-1.448-.581-2.292-.581-.82 0-1.573.193-2.257.581a4.51 4.51 0 0 0-1.641 1.574c-.411.662-.662 1.449-.753 2.36Z"/></g><defs><clipPath id="a"><path fill="#fff" d="M0 .016h136v72.972H0z"/></clipPath></defs></svg>