<svg xmlns="http://www.w3.org/2000/svg" width="20" height="20" fill="none"><path fill="#9C9C9C" d="M15.834 5.834c0-.916-.75-1.666-1.667-1.666h-1.666a.836.836 0 0 0-.834.832c0 .459.375.834.834.834h1.666v2.209l-2.9 3.625H8.334V8.334A.836.836 0 0 0 7.5 7.5H5a3.332 3.332 0 0 0-3.334 3.334V12.5c0 .459.375.834.834.834h.832c0 1.383 1.118 2.5 2.5 2.5 1.384 0 2.5-1.117 2.5-2.5h2.934c.509 0 .984-.234 1.3-.625l2.9-3.625c.241-.3.366-.668.366-1.041l.002-2.21Zm-10 8.334A.836.836 0 0 1 5 13.334h1.666a.836.836 0 0 1-.833.834Z"/><path fill="#9C9C9C" d="M5 5h2.5c.459 0 .834.375.834.834a.835.835 0 0 1-.833.832H5a.836.836 0 0 1-.834-.832C4.166 5.375 4.541 5 5 5Zm10.835 5.832a2.497 2.497 0 0 0-2.5 2.5c0 1.384 1.116 2.5 2.5 2.5 1.383 0 2.5-1.116 2.5-2.5 0-1.382-1.117-2.5-2.5-2.5Zm0 3.334a.837.837 0 0 1-.834-.834c0-.457.375-.832.834-.832.459 0 .834.375.834.832a.836.836 0 0 1-.834.834Z"/></svg>