<svg xmlns="http://www.w3.org/2000/svg" width="14" height="15" fill="none"><path fill="url(#a)" d="M6.667 0C3.167 0 0 2.452 0 6.244c0 2.422 2.042 5.27 6.117 8.552.154.121.35.188.554.188.203 0 .4-.067.554-.188 4.067-3.282 6.109-6.13 6.109-8.552C13.334 2.452 10.167 0 6.667 0Zm0 7.615C5.75 7.615 5 6.93 5 6.092c0-.838.75-1.524 1.667-1.524s1.667.686 1.667 1.524-.75 1.523-1.667 1.523Z"/><defs><linearGradient id="a" x1="6.667" x2="6.667" y1="0" y2="14.984" gradientUnits="userSpaceOnUse"><stop stop-color="#FFBD00"/><stop offset="1" stop-color="#F2A60C"/></linearGradient></defs></svg>