<svg xmlns="http://www.w3.org/2000/svg" width="15" height="14" fill="none"><path fill="url(#a)" d="m13.533 9.33-2.117-.222a1.805 1.805 0 0 0-.737.074 1.687 1.687 0 0 0-.629.36l-1.534 1.401c-2.365-1.1-4.288-2.856-5.49-5.018l1.54-1.409c.36-.327.534-.784.475-1.25l-.24-1.918a1.486 1.486 0 0 0-.55-.963A1.761 1.761 0 0 0 3.142 0h-1.44C.757 0-.026.716.032 1.576.475 8.08 6.166 13.273 13.275 13.677c.941.053 1.725-.662 1.725-1.523v-1.317a1.437 1.437 0 0 0-.417-1.01 1.708 1.708 0 0 0-1.05-.498Z"/><defs><linearGradient id="a" x1="7.515" x2="7.515" y1="0" y2="13.68" gradientUnits="userSpaceOnUse"><stop stop-color="#FFBD00"/><stop offset="1" stop-color="#F2A60C"/></linearGradient></defs></svg>