<svg width="136" height="73" viewBox="0 0 136 73" fill="none" xmlns="http://www.w3.org/2000/svg">
<g clip-path="url(#clip0_11_2)">
<path d="M0.126114 25.1414V0.849621H4.84577V21.0016H17.2263V25.1414H0.126114ZM27.8311 25.4836C26.3947 25.4836 25.0951 25.2441 23.9323 24.7651C22.7694 24.2633 21.7776 23.5904 20.9568 22.7465C20.136 21.8797 19.4976 20.8989 19.0416 19.8041C18.6084 18.6864 18.3918 17.5117 18.3918 16.28C18.3918 14.5694 18.768 13.0069 19.5204 11.5928C20.2956 10.1786 21.39 9.04952 22.8036 8.20559C24.2401 7.33883 25.9273 6.90547 27.8653 6.90547C29.8262 6.90547 31.502 7.33883 32.8928 8.20559C34.2835 9.04952 35.3437 10.1786 36.0734 11.5928C36.8258 12.9841 37.202 14.4895 37.202 16.109C37.202 16.3827 37.1905 16.6678 37.1678 16.9643C37.1451 17.238 37.1221 17.4661 37.0994 17.6486H23.2483C23.3394 18.561 23.6017 19.3593 24.0349 20.0436C24.4909 20.7278 25.0609 21.2525 25.7449 21.6174C26.4517 21.9595 27.204 22.1306 28.0021 22.1306C28.914 22.1306 29.769 21.9139 30.5671 21.4805C31.3879 21.0244 31.9466 20.4313 32.243 19.7014L36.176 20.7963C35.7429 21.7086 35.1158 22.5184 34.295 23.2255C33.4969 23.9325 32.5508 24.4914 31.4563 24.9019C30.3619 25.2897 29.1534 25.4836 27.8311 25.4836ZM23.1457 14.7404H32.5166C32.4254 13.8281 32.1631 13.0412 31.7299 12.3797C31.3195 11.6954 30.7723 11.1708 30.0883 10.8058C29.4043 10.4181 28.6404 10.2242 27.7969 10.2242C26.9761 10.2242 26.2237 10.4181 25.5397 10.8058C24.8785 11.1708 24.3313 11.6954 23.8981 12.3797C23.4877 13.0412 23.2368 13.8281 23.1457 14.7404ZM46.5946 25.4836C45.067 25.4836 43.6076 25.2327 42.2169 24.7309C40.8262 24.2291 39.6292 23.4877 38.6259 22.507L40.2675 19.5304C41.3392 20.3971 42.3879 21.0358 43.4139 21.4463C44.4627 21.8569 45.466 22.0622 46.4236 22.0622C47.3128 22.0622 48.0195 21.9025 48.544 21.5832C49.0912 21.2639 49.3648 20.7849 49.3648 20.1462C49.3648 19.7128 49.2165 19.3821 48.9202 19.154C48.6239 18.9031 48.1905 18.6864 47.6206 18.5039C47.0734 18.3215 46.4009 18.1162 45.6028 17.8881C44.2804 17.4547 43.1745 17.0328 42.2853 16.6222C41.3961 16.2116 40.7236 15.6984 40.2675 15.0826C39.8344 14.4439 39.6177 13.6342 39.6177 12.6534C39.6177 11.4673 39.914 10.4523 40.5069 9.60836C41.1225 8.7416 41.966 8.06874 43.0377 7.58974C44.1321 7.11075 45.409 6.87125 46.8682 6.87125C48.1451 6.87125 49.3533 7.07653 50.4934 7.4871C51.6335 7.87487 52.6707 8.51351 53.6056 9.40307L51.7588 12.3112C50.8469 11.6042 49.9804 11.091 49.1596 10.7716C48.3388 10.4295 47.5065 10.2584 46.663 10.2584C46.1842 10.2584 45.7281 10.3154 45.2949 10.4295C44.8845 10.5435 44.5425 10.7374 44.2689 11.0111C44.018 11.262 43.8927 11.627 43.8927 12.106C43.8927 12.5393 44.0068 12.8815 44.2347 13.1324C44.4856 13.3605 44.8503 13.5657 45.3291 13.7482C45.8307 13.9307 46.4351 14.136 47.1418 14.3641C48.5782 14.7746 49.7867 15.1966 50.767 15.63C51.7703 16.0634 52.5227 16.5994 53.0242 17.238C53.5258 17.8539 53.7766 18.7092 53.7766 19.8041C53.7766 21.5832 53.1268 22.9745 51.8272 23.9782C50.5276 24.9818 48.7834 25.4836 46.5946 25.4836ZM65.5544 25.1414V0.849621H75.8487C76.9659 0.849621 77.9919 1.07771 78.9268 1.53389C79.8617 1.99008 80.671 2.60593 81.355 3.38144C82.0617 4.15695 82.6089 5.02371 82.9966 5.98169C83.3843 6.93968 83.578 7.92047 83.578 8.92408C83.578 10.2926 83.2587 11.5928 82.6204 12.8245C81.9821 14.0562 81.1041 15.0598 79.987 15.8353C78.8699 16.6108 77.5473 16.9985 76.0197 16.9985H70.2741V25.1414H65.5544ZM70.2741 12.8587H75.7461C76.316 12.8587 76.8291 12.699 77.2851 12.3797C77.7412 12.0603 78.1059 11.6042 78.3796 11.0111C78.6532 10.3953 78.79 9.69958 78.79 8.92408C78.79 8.08015 78.6304 7.36166 78.3112 6.76861C78.0148 6.17556 77.6157 5.73078 77.1141 5.43427C76.6353 5.13776 76.1108 4.98949 75.5409 4.98949H70.2741V12.8587ZM84.9532 19.8383C84.9532 18.675 85.2725 17.66 85.9109 16.7933C86.5722 15.9037 87.4841 15.2194 88.6469 14.7404C89.8097 14.2614 91.1435 14.0219 92.6483 14.0219C93.4007 14.0219 94.1646 14.079 94.9398 14.193C95.7149 14.3071 96.3877 14.4895 96.9576 14.7404V13.7824C96.9576 12.642 96.6156 11.7638 95.9316 11.148C95.2703 10.5321 94.2785 10.2242 92.9561 10.2242C91.9758 10.2242 91.0409 10.3953 90.1517 10.7374C89.2625 11.0795 88.3276 11.5813 87.3473 12.2428L85.8767 9.232C87.0622 8.4565 88.2707 7.87487 89.5019 7.4871C90.7558 7.09933 92.0669 6.90547 93.4349 6.90547C95.9885 6.90547 97.9721 7.54411 99.3858 8.82144C100.822 10.0988 101.54 11.9235 101.54 14.2956V20.0094C101.54 20.4883 101.62 20.8305 101.78 21.0358C101.962 21.2411 102.247 21.3665 102.635 21.4121V25.1414C102.224 25.2099 101.848 25.2669 101.506 25.3125C101.187 25.3581 100.913 25.3809 100.685 25.3809C99.7735 25.3809 99.078 25.1756 98.5992 24.7651C98.1431 24.3545 97.8583 23.8527 97.7442 23.2597L97.6416 22.3359C96.8665 23.3395 95.8974 24.115 94.7346 24.6624C93.5717 25.2099 92.3862 25.4836 91.1777 25.4836C89.9922 25.4836 88.9205 25.2441 87.9629 24.7651C87.028 24.2633 86.2871 23.5904 85.7399 22.7465C85.2154 21.8797 84.9532 20.9103 84.9532 19.8383ZM96.1026 20.7621C96.3535 20.4883 96.5587 20.2146 96.7182 19.9409C96.8777 19.6672 96.9576 19.4163 96.9576 19.1882V17.3749C96.4104 17.1468 95.8175 16.9757 95.1792 16.8617C94.5408 16.7248 93.9365 16.6564 93.3665 16.6564C92.181 16.6564 91.2004 16.9187 90.4253 17.4433C89.6729 17.9451 89.2967 18.618 89.2967 19.4619C89.2967 19.9181 89.422 20.3515 89.6729 20.7621C89.9238 21.1726 90.2885 21.5033 90.7673 21.7543C91.2461 22.0052 91.816 22.1306 92.4773 22.1306C93.1613 22.1306 93.8339 22.0052 94.4952 21.7543C95.1564 21.4805 95.6922 21.1498 96.1026 20.7621ZM105.652 18.4355V7.21339H110.235V17.4433C110.235 18.8119 110.486 19.8497 110.987 20.5568C111.489 21.2411 112.23 21.5832 113.21 21.5832C113.803 21.5832 114.385 21.4691 114.954 21.2411C115.547 20.9901 116.083 20.6252 116.562 20.1462C117.063 19.6672 117.485 19.0628 117.827 18.3329V7.21339H122.41V20.0094C122.41 20.4883 122.49 20.8305 122.65 21.0358C122.832 21.2411 123.117 21.3665 123.505 21.4121V25.1414C123.048 25.2099 122.661 25.2555 122.342 25.2783C122.045 25.3239 121.772 25.3467 121.521 25.3467C120.7 25.3467 120.028 25.1642 119.503 24.7993C119.002 24.4115 118.705 23.8869 118.614 23.2255L118.511 21.7885C117.713 22.9974 116.687 23.9211 115.433 24.5598C114.179 25.1756 112.8 25.4836 111.295 25.4836C109.448 25.4836 108.046 24.8905 107.088 23.7044C106.131 22.4956 105.652 20.7393 105.652 18.4355ZM126.93 0.165344H131.513V19.3935C131.513 20.2146 131.65 20.7735 131.923 21.07C132.197 21.3437 132.573 21.4805 133.052 21.4805C133.417 21.4805 133.793 21.4349 134.181 21.3437C134.568 21.2525 134.91 21.1384 135.207 21.0016L135.822 24.4914C135.207 24.7879 134.489 25.016 133.668 25.1756C132.847 25.3353 132.106 25.4151 131.445 25.4151C130.008 25.4151 128.891 25.0388 128.093 24.2861C127.318 23.5106 126.93 22.4157 126.93 21.0016V0.165344ZM19.617 65.4068C18.0438 65.4068 16.5504 65.0874 15.1367 64.4488C13.7459 63.8102 12.5147 62.9319 11.4431 61.8144C10.3943 60.6738 9.57349 59.351 8.98068 57.8456C8.38786 56.3401 8.09147 54.7094 8.09147 52.953C8.09147 51.288 8.38786 49.7254 8.98068 48.2657C9.57349 46.783 10.4057 45.4829 11.4773 44.3653C12.5489 43.2477 13.8029 42.3694 15.2393 41.7308C16.6758 41.0923 18.2376 40.7729 19.9248 40.7729C22.2048 40.7729 24.1542 41.2633 25.7731 42.2441C27.4148 43.202 28.646 44.4794 29.4668 46.076L25.9441 48.6763C25.3285 47.4673 24.462 46.5435 23.3448 45.9049C22.2504 45.2664 21.0534 44.9469 19.7538 44.9469C18.7278 44.9469 17.793 45.1637 16.9494 45.597C16.1058 46.0303 15.3761 46.6234 14.7605 47.3761C14.1449 48.1288 13.6661 48.9957 13.3241 49.9764C13.0049 50.9571 12.8453 51.995 12.8453 53.0898C12.8453 54.2531 13.0163 55.3252 13.3583 56.3059C13.7231 57.2866 14.2247 58.142 14.8631 58.872C15.5244 59.602 16.2882 60.1836 17.1546 60.6169C18.021 61.0274 18.9786 61.2327 20.0274 61.2327C21.2586 61.2327 22.4328 60.9133 23.55 60.2747C24.6901 59.6362 25.7503 58.7009 26.7308 57.4692V62.1223C24.7014 64.312 22.3302 65.4068 19.617 65.4068ZM26.3887 56.2033H21.498V52.7477H30.2877V65.2357H26.3887V56.2033ZM32.6341 59.9326C32.6341 58.7693 32.9531 57.7544 33.5917 56.8876C34.2528 55.998 35.165 55.3137 36.3278 54.8347C37.4906 54.3557 38.8244 54.1162 40.3292 54.1162C41.0816 54.1162 41.8453 54.1732 42.6206 54.2873C43.3958 54.4014 44.0683 54.5837 44.6385 54.8347V53.8768C44.6385 52.7362 44.2965 51.8581 43.6124 51.2423C42.9512 50.6264 41.9593 50.3185 40.637 50.3185C39.6564 50.3185 38.7218 50.4896 37.8326 50.8317C36.9434 51.1739 36.0085 51.6756 35.0282 52.3371L33.5575 49.3263C34.7431 48.5509 35.9516 47.9693 37.1828 47.5814C38.4367 47.1936 39.7478 46.9998 41.1158 46.9998C43.6694 46.9998 45.653 47.6383 47.0667 48.9157C48.5031 50.1932 49.2213 52.0177 49.2213 54.39V60.1037C49.2213 60.5827 49.3009 60.9248 49.4607 61.1301C49.6429 61.3354 49.928 61.4607 50.3157 61.5064V65.2357C49.9053 65.3042 49.5291 65.3611 49.1871 65.4068C48.8678 65.4525 48.5942 65.4752 48.3663 65.4752C47.4541 65.4752 46.7589 65.27 46.2801 64.8594C45.824 64.4488 45.5389 63.9471 45.4251 63.354L45.3225 62.4302C44.5471 63.4339 43.5783 64.2093 42.4154 64.7567C41.2526 65.3042 40.0668 65.5779 38.8586 65.5779C37.6728 65.5779 36.6014 65.3384 35.6438 64.8594C34.7089 64.3577 33.9679 63.6846 33.4207 62.8408C32.8962 61.9739 32.6341 61.0047 32.6341 59.9326ZM43.7835 60.8564C44.0341 60.5827 44.2393 60.3089 44.3991 60.0352C44.5586 59.7615 44.6385 59.5105 44.6385 59.2825V57.4692C44.0913 57.2412 43.4984 57.0701 42.86 56.956C42.2215 56.8191 41.6173 56.7507 41.0474 56.7507C39.8616 56.7507 38.8813 57.0129 38.1062 57.5376C37.3538 58.0393 36.9776 58.7124 36.9776 59.5562C36.9776 60.0125 37.1029 60.4458 37.3538 60.8564C37.6044 61.2669 37.9694 61.5976 38.4482 61.8486C38.927 62.0996 39.4969 62.2249 40.1582 62.2249C40.8422 62.2249 41.5147 62.0996 42.176 61.8486C42.8371 61.5749 43.373 61.2442 43.7835 60.8564ZM64.1744 51.2765C62.7834 51.2765 61.5409 51.5502 60.4463 52.0976C59.3521 52.6223 58.5655 53.3863 58.0867 54.39V65.2357H53.5038V47.3077H57.7105V51.1396C58.3488 49.908 59.1581 48.9385 60.1387 48.2315C61.119 47.5245 62.1565 47.1366 63.251 47.0682C63.5016 47.0682 63.6956 47.0682 63.8324 47.0682C63.9692 47.0682 64.083 47.0797 64.1744 47.1024V51.2765ZM65.3984 59.9326C65.3984 58.7693 65.7174 57.7544 66.356 56.8876C67.017 55.998 67.9292 55.3137 69.092 54.8347C70.2548 54.3557 71.5886 54.1162 73.0932 54.1162C73.8459 54.1162 74.6095 54.1732 75.3849 54.2873C76.16 54.4014 76.8325 54.5837 77.4027 54.8347V53.8768C77.4027 52.7362 77.0607 51.8581 76.3767 51.2423C75.7154 50.6264 74.7236 50.3185 73.4013 50.3185C72.4207 50.3185 71.486 50.4896 70.5968 50.8317C69.7076 51.1739 68.7727 51.6756 67.7924 52.3371L66.3218 49.3263C67.5073 48.5509 68.7158 47.9693 69.947 47.5814C71.2009 47.1936 72.512 46.9998 73.8801 46.9998C76.4336 46.9998 78.4172 47.6383 79.8309 48.9157C81.2673 50.1932 81.9856 52.0177 81.9856 54.39V60.1037C81.9856 60.5827 82.0652 60.9248 82.225 61.1301C82.4072 61.3354 82.6923 61.4607 83.08 61.5064V65.2357C82.6696 65.3042 82.2934 65.3611 81.9514 65.4068C81.6321 65.4525 81.3585 65.4752 81.1306 65.4752C80.2184 65.4752 79.5231 65.27 79.0443 64.8594C78.5882 64.4488 78.3031 63.9471 78.1893 63.354L78.0867 62.4302C77.3113 63.4339 76.3425 64.2093 75.1797 64.7567C74.0169 65.3042 72.8311 65.5779 71.6228 65.5779C70.437 65.5779 69.3656 65.3384 68.408 64.8594C67.4731 64.3577 66.7322 63.6846 66.185 62.8408C65.6605 61.9739 65.3984 61.0047 65.3984 59.9326ZM76.5477 60.8564C76.7983 60.5827 77.0035 60.3089 77.1633 60.0352C77.3228 59.7615 77.4027 59.5105 77.4027 59.2825V57.4692C76.8555 57.2412 76.2626 57.0701 75.6243 56.956C74.9857 56.8191 74.3816 56.7507 73.8117 56.7507C72.6259 56.7507 71.6456 57.0129 70.8704 57.5376C70.118 58.0393 69.7418 58.7124 69.7418 59.5562C69.7418 60.0125 69.8671 60.4458 70.118 60.8564C70.3687 61.2669 70.7336 61.5976 71.2124 61.8486C71.6912 62.0996 72.2612 62.2249 72.9225 62.2249C73.6065 62.2249 74.279 62.0996 74.9403 61.8486C75.6013 61.5749 76.1373 61.2442 76.5477 60.8564ZM93.2792 65.3384C92.0934 65.3384 90.999 65.1104 89.9959 64.6541C89.0153 64.1751 88.1603 63.5135 87.4309 62.6697C86.7239 61.8258 86.1767 60.8564 85.7893 59.7615C85.4016 58.6667 85.2079 57.5034 85.2079 56.2717C85.2079 54.9716 85.4131 53.7626 85.8235 52.6451C86.2336 51.5275 86.8038 50.5465 87.5335 49.7027C88.2859 48.8358 89.1636 48.1745 90.1669 47.7183C91.193 47.2393 92.3216 46.9998 93.5528 46.9998C94.9435 46.9998 96.1632 47.3192 97.2122 47.9578C98.2609 48.5736 99.1274 49.4062 99.8114 50.4554V47.3077H103.813V64.3804C103.813 66.1595 103.38 67.6764 102.513 68.9308C101.669 70.2082 100.495 71.1774 98.9906 71.839C97.4858 72.5233 95.7758 72.8654 93.8606 72.8654C91.9224 72.8654 90.2808 72.5348 88.9357 71.8732C87.5904 71.2346 86.4391 70.3221 85.4815 69.1361L87.9781 66.7069C88.6621 67.5508 89.5171 68.2123 90.5431 68.6913C91.5919 69.1703 92.6978 69.4098 93.8606 69.4098C94.8409 69.4098 95.7301 69.2273 96.5282 68.8624C97.349 68.5203 97.9988 67.9728 98.4776 67.2201C98.9791 66.4902 99.23 65.5437 99.23 64.3804V62.1223C98.6371 63.1487 97.7936 63.9471 96.6992 64.5172C95.6275 65.0647 94.4874 65.3384 93.2792 65.3384ZM94.8182 61.6775C95.3197 61.6775 95.7985 61.5976 96.2546 61.438C96.7104 61.2784 97.1323 61.0616 97.52 60.7879C97.9074 60.5142 98.2495 60.1948 98.546 59.83C98.8423 59.4421 99.0703 59.0545 99.23 58.6667V54.39C98.9564 53.683 98.5687 53.0671 98.0672 52.5424C97.5884 52.0177 97.0412 51.6186 96.4256 51.3449C95.8327 51.0485 95.2056 50.9001 94.5446 50.9001C93.8376 50.9001 93.1993 51.0485 92.6294 51.3449C92.0592 51.6414 91.5692 52.0634 91.1587 52.6108C90.7483 53.1355 90.4291 53.7284 90.2011 54.39C89.9959 55.0285 89.8933 55.7016 89.8933 56.4086C89.8933 57.1386 90.0186 57.8228 90.2695 58.4614C90.5202 59.1 90.8622 59.6589 91.2956 60.1379C91.7514 60.6169 92.2759 60.9932 92.8688 61.2669C93.4844 61.5406 94.1342 61.6775 94.8182 61.6775ZM116.255 65.5779C114.818 65.5779 113.519 65.3384 112.356 64.8594C111.193 64.3577 110.201 63.6846 109.38 62.8408C108.56 61.9739 107.921 60.9932 107.465 59.8984C107.032 58.7808 106.815 57.6061 106.815 56.3744C106.815 54.6637 107.192 53.1013 107.944 51.6871C108.719 50.2728 109.813 49.1437 111.227 48.2999C112.664 47.4331 114.351 46.9998 116.289 46.9998C118.249 46.9998 119.925 47.4331 121.316 48.2999C122.707 49.1437 123.767 50.2728 124.497 51.6871C125.249 53.0783 125.626 54.5837 125.626 56.2033C125.626 56.477 125.614 56.7622 125.591 57.0586C125.568 57.3323 125.546 57.5603 125.523 57.7429H111.672C111.763 58.6552 112.025 59.4536 112.458 60.1379C112.914 60.8222 113.484 61.3469 114.168 61.7117C114.875 62.0538 115.628 62.2249 116.426 62.2249C117.338 62.2249 118.193 62.0081 118.991 61.5749C119.811 61.1186 120.37 60.5257 120.666 59.7957L124.6 60.8906C124.166 61.8029 123.539 62.6128 122.718 63.3198C121.92 64.0268 120.974 64.5857 119.88 64.9962C118.785 65.3841 117.577 65.5779 116.255 65.5779ZM111.569 54.8347H120.94C120.849 53.9225 120.587 53.1355 120.153 52.474C119.743 51.7897 119.196 51.265 118.512 50.9001C117.828 50.5123 117.064 50.3185 116.22 50.3185C115.4 50.3185 114.647 50.5123 113.963 50.9001C113.302 51.265 112.755 51.7897 112.322 52.474C111.911 53.1355 111.66 53.9225 111.569 54.8347Z" fill="white"/>
</g>
<defs>
<clipPath id="clip0_11_2">
<rect width="136" height="72.9716" fill="white" transform="translate(0 0.015686)"/>
</clipPath>
</defs>
</svg>
