<svg xmlns="http://www.w3.org/2000/svg" width="120" height="78" fill="none"><path fill="#9C9C9C" fill-rule="evenodd" d="M39.495 0c-10.92 2.375-18.91 4.75-27.562 7.125C5.9 30.524 3.06 49.06.027 67.88c-.57 12.859 8.12 9.597 11.043 9.249 12.164-2.018 22.515-6.83 32.022-10.666 2.106.755 8.143 4.941 8.143 4.941 3.208 2.065 11.22 1.11 13.154-.251 5.241-3.03 7.956-7.086 12.929-10.338 5.079 4.787 10.913 8.451 14.68 7.919 3.836.06 8.021-2.131 11.906-4.126 8.723-6.424 13.595-14.29 15.703-23.193.991-6.515.026-12.527-1.965-18.305-3.665-8.91-9.197-14.21-14.308-20.018 2.367 6.78 3.56 13.913 4.015 21.435 1.019 13.564-1.74 22.349-7.068 30.12-5.825 5.908-8.21 5.267-10.181 3.842-3.55-1.999-3.109-5.026-1.898-8.252 3.135-6.856 8.228-11.104 14.839-17.074-6.148-.514-13.359 1.93-18.98 5.976-6.383 5.012-8.029 7.383-8.87 10.217-.743 1.982-.53 4.684.169 6.572-4.117 2.93-7.866 6.212-11.336 7.952-2.714 1.168-5.633 2.907-6.02-2.403 1.17-9.058 1.797-18.117 4.66-27.176 4.37-.013 6.031-.506 14.15.142-.357-1.299.165-3.565.69-5.833-5.479 1.48-11.101 2.658-14.196 2.419C65.63 24.344 67.05 17.25 67.78 11.83c-7.979 4.59-13.388 6.123-18.749 8.1.617 4.675.665 9.194-.518 13.374-3.299.5-7.273 1.834-9.49.996-.538 3.822-.967 5.661-1.792 7.826 4.816-2.043 8.937-3.628 10.765-3.7-.317 6-3.247 14.248-5.23 21.622-6.678 2.076-14.892 4.883-20.52 5.16-2.755-.423-7.06-.178-7.898-4.585.457-6.064 2.699-29.893 10.526-42.97C28.166 11.22 33.959 5.973 39.495 0Z" clip-rule="evenodd"/></svg>