<svg width="32" height="24" viewBox="0 0 32 24" fill="none" xmlns="http://www.w3.org/2000/svg">
<path d="M31.3307 3.74833C31.1499 3.02346 30.7934 2.36188 30.2968 1.82983C29.8003 1.29778 29.1811 0.913935 28.5013 0.716743C26.0067 -1.78814e-07 16 0 16 0C16 0 5.99333 -1.78814e-07 3.49733 0.716743C2.81788 0.914286 2.19906 1.29827 1.70277 1.83028C1.20648 2.36229 0.850122 3.02369 0.669333 3.74833C0 6.42225 0 12 0 12C0 12 0 17.5778 0.669333 20.2517C0.850115 20.9766 1.20663 21.6382 1.70319 22.1702C2.19974 22.7022 2.8189 23.0861 3.49867 23.2833C5.99333 24 16 24 16 24C16 24 26.0067 24 28.5027 23.2833C29.1825 23.0863 29.8017 22.7024 30.2983 22.1704C30.7949 21.6383 31.1513 20.9766 31.332 20.2517C32 17.5778 32 12 32 12C32 12 32 6.42225 31.3307 3.74833ZM12.7267 17.064V6.93607L21.0907 12L12.7267 17.064Z" fill="url(#paint0_linear_32_243)"/>
<defs>
<linearGradient id="paint0_linear_32_243" x1="16" y1="0" x2="16" y2="24" gradientUnits="userSpaceOnUse">
<stop stop-color="#FFBD00"/>
<stop offset="1" stop-color="#F2A60C"/>
</linearGradient>
</defs>
</svg>
